<?xml version="1.0" encoding="utf-8"?>
<!-- Generator: Adobe Illustrator 16.0.0, SVG Export Plug-In . SVG Version: 6.00 Build 0)  -->
<!DOCTYPE svg PUBLIC "-//W3C//DTD SVG 1.1//EN" "http://www.w3.org/Graphics/SVG/1.1/DTD/svg11.dtd">
<svg version="1.1" xmlns="http://www.w3.org/2000/svg" xmlns:xlink="http://www.w3.org/1999/xlink" x="0px" y="0px"
	 width="512.522px" height="100.523px" viewBox="0 0 512.522 100.523" enable-background="new 0 0 512.522 100.523"
	 xml:space="preserve">
<g id="Background">
</g>
<g id="Layer_1">
	<g>
		<g>
			<path fill-rule="evenodd" clip-rule="evenodd" fill="#FFFFFF" d="M1.024,47.197c0,25.108,20.348,45.464,45.457,45.464
				c25.107,0,45.461-20.355,45.461-45.464c0-25.108-20.354-45.458-45.461-45.458C21.372,1.739,1.024,22.089,1.024,47.197z"/>
			<path fill-rule="evenodd" clip-rule="evenodd" fill="#20267D" d="M63.62,17.92c-2.027,0.341-2.883,1.862-4.194,2.924
				c-0.495-2.108,0.114-4.078-0.624-5.645c-0.609-1.329-1.776-1.413-2.51-2.516c0.219-3-1.635-4.947-3.973-4.185
				c-1.399-2.664-5.396-2.926-8.371-1.876c-0.836,1.116-1.033,2.863-1.463,4.393c-1.062,0.747-2.385,0.86-3.132,1.879
				c-0.534,0.722-0.358,1.905-0.843,2.931c-0.165,0.366-0.765,0.393-1.045,0.834c-0.937,1.511-0.32,3.045-2.307,3.352
				c-0.889,0.134-1.746-1.412-2.709-1.888c0.12-3.542-1.244-5.595-3.152-7.107c0.418-2.37-1.078-2.827-1.465-4.393
				c0.964-1.393,3.01-1.506,4.814-2.098c4.818-1.552,11.16-2.971,18.006-2.511c5.48,0.374,10.37,2.154,14.854,4.397
				c1.492,0.746,3.814,1.275,3.553,2.719c-0.191,1.08-2.017,0.962-2.93,1.677c-1.148,0.898-0.916,2.166-1.465,4.186
				C64.386,16.022,63.574,16.855,63.62,17.92z"/>
			<path fill-rule="evenodd" clip-rule="evenodd" fill="#20267D" d="M6.296,26.704c8.303,0,16.582,0,24.887,0
				c0.432,0.69,0.114,2.124,0.223,3.142c9.751,0,19.516,0,29.285,0c1.334,0.281,0.518-1.578,1.668-1.465
				c8.531-0.079,16.812,0.062,25.109,0.211c1.258,1.063,2.18,3.52,2.099,5.229c-28.743,0.001-57.112-0.353-86.003-0.211
				C4.063,30.901,4.934,28.563,6.296,26.704z"/>
			<path fill-rule="evenodd" clip-rule="evenodd" fill="#20267D" d="M3.142,35.496c29.142-0.055,58.154,0.016,87.054,0.208
				c1.018,3.793,1.498,8.126,1.464,12.97c-3.434,0.387-6.954,0.21-10.461,0.21c-3.473,0-7.357,0.61-10.674,0
				c-2.81-0.513-5.041-3.349-7.947-3.139c-2.107,0.153-3.391,2.114-5.02,2.515c-3.035-1.505-5.407-3.657-8.369-5.235
				c-1.258,0.361-1.982,1.228-3.15,1.675c-2.346-0.992-3.148-3.536-5.02-5.019c-1.242,0.125-2.094,1.594-3.131,2.51
				c-1.082,0.955-2.361,1.647-3.353,2.509c-1.628,0.105-1.474-1.596-2.931-1.675c-2.235,1.159-4.969,2.274-7.748,3.352
				c-0.76,0.299-1.757,0.969-2.508,1.043c-1.061,0.114-2.26-0.397-3.338-0.419c-5.193-0.083-10.979,0.583-16.736,0
				C1.347,42.614,1.575,38.389,3.142,35.496z"/>
			<path fill-rule="evenodd" clip-rule="evenodd" fill="#028C0F" d="M91.444,50.979c-0.068,3.486-0.805,6.297-1.468,9.205
				c-28.866,0-57.75,0-86.613,0c-1.316-2.944-1.846-6.667-2.089-10.671c3.789,0.104,7.589-0.05,11.281-0.208
				c3.451-0.155,6.921,0.47,9.835,0c3.862-0.628,6.416-4.617,9.836-2.93c0.363,1.881-1.681,2.519-2.929,3.344
				c-1.338,0.906-2.771,1.727-3.555,2.931c2.193,0.247,3.59-1.512,5.24-2.723c1.472-1.079,3.396-2.901,5.017-3.134
				c2.275-0.326,5.433,1.507,7.327-0.629c1.648,1.549,3.415,3.002,5.861,3.763c0.055-2.004-2.155-1.761-2.104-3.763
				c3.643-3.324,7.475,4.324,10.473,4.396c1.748,0.04,3.585-2.524,5.44-2.719c2.848-0.305,5.577,2.725,8.571,3.138
				C77.862,51.841,84.148,50.336,91.444,50.979z"/>
			<path fill-rule="evenodd" clip-rule="evenodd" fill="#028C0F" d="M4.202,62.274c28.418-0.109,56.501,0.13,84.729,0.21
				c-0.233,2.118-1.244,3.76-2.294,5.65c-0.789,1.419-1.861,4.029-3.145,4.602c-1.236,0.558-3.225,0.391-4.395,0.211
				c-3.688-0.58-6.695-3.904-8.574-6.279c-2.175,2.783-4.227,6.565-8.576,6.067c-3.566-0.404-5.111-3.659-6.902-6.277
				c-2.219,2.075-3.623,5.631-6.906,6.277c-4.76,0.937-7.021-2.898-9.01-5.857c-2.729,2.034-4.506,5.876-8.775,5.649
				c-3.578-0.188-5.199-3.336-6.906-6.069c-1.775,1.755-3.344,4.794-6.074,5.86c-1.861,0.726-5.188,1.091-7.528,0.208
				C7.438,71.62,5.226,64.855,4.202,62.274z"/>
			<path fill-rule="evenodd" clip-rule="evenodd" fill="#20267D" d="M81.608,75.038c0.689,0.298-0.442,1.202-0.828,1.677
				c-6.626,8.132-18.112,14.98-32.014,15.691c-17.908,0.917-30.312-7.599-37.876-17.788c1.647,0.257,3.218,0.364,4.595,0.21
				c3.633-0.389,5.746-2.651,7.75-4.601c2.271,4.252,7.219,5.871,11.721,3.136c1.205-0.735,3.383-3.342,3.758-3.346
				c0.6-0.007,2.32,2.664,2.929,3.135c0.878,0.687,2.702,1.543,3.571,1.676c5.172,0.795,6.627-2.639,9.832-4.811
				c1.517,2.381,3.858,4.666,7.109,4.811c3.805,0.175,6.416-2.61,8.164-5.02C72.848,72.791,75.639,75.498,81.608,75.038z"/>
			<path fill="#FFFFFF" d="M46.481,93.495c-12.413,0-24.095-4.837-32.857-13.616C4.839,71.098,0,59.426,0,47.005
				C0,34.59,4.839,22.921,13.624,14.136C22.387,5.362,34.068,0.524,46.481,0.524c12.416,0,24.092,4.838,32.879,13.612
				c8.775,8.785,13.604,20.454,13.604,32.869c0,12.421-4.828,24.092-13.604,32.874C70.573,88.658,58.897,93.495,46.481,93.495z
				 M46.481,2.57c-11.869,0-23.017,4.625-31.407,13.018C6.683,23.98,2.048,35.137,2.048,47.005c0,11.874,4.635,23.031,13.026,31.425
				c8.391,8.393,19.538,13.014,31.407,13.014s23.033-4.621,31.427-13.014c8.392-8.394,13.007-19.551,13.007-31.425
				c0-11.869-4.615-23.025-13.007-31.418C69.515,7.194,58.351,2.57,46.481,2.57z"/>
		</g>
		<g>
			<g>
				<rect x="106.032" y="5.904" fill="none" width="230.232" height="56.008"/>
				<path fill="#282828" d="M108.304,5.912h9.314l3.592,18.112l3.568-18.112h9.309v29.767h-5.801V12.978l-4.471,22.701h-5.25
					l-4.461-22.701v22.701h-5.801V5.912z"/>
				<path fill="#282828" d="M137.401,24.958c0-3.29,0.855-6,2.564-8.132s4.02-3.198,6.928-3.198c3.324,0,5.836,1.252,7.535,3.757
					c1.367,2.017,2.049,4.501,2.049,7.452c0,3.317-0.846,6.034-2.541,8.152c-1.693,2.119-4.037,3.178-7.027,3.178
					c-2.67,0-4.826-0.88-6.475-2.64C138.413,31.347,137.401,28.491,137.401,24.958z M143.782,24.938
					c0,1.922,0.299,3.344,0.898,4.264s1.352,1.38,2.26,1.38c0.916,0,1.67-0.453,2.26-1.36c0.588-0.907,0.883-2.362,0.883-4.365
					c0-1.868-0.297-3.259-0.891-4.173c-0.596-0.914-1.33-1.371-2.205-1.371c-0.928,0-1.695,0.464-2.299,1.391
					C144.083,21.631,143.782,23.042,143.782,24.938z"/>
				<path fill="#282828" d="M177.04,35.679h-5.941v-3.492c-0.887,1.435-1.781,2.457-2.682,3.066
					c-0.902,0.609-2.01,0.914-3.322,0.914c-1.752,0-3.125-0.68-4.121-2.041s-1.494-3.455-1.494-6.285V14.115h6.396v11.858
					c0,1.354,0.193,2.314,0.578,2.883c0.385,0.568,0.928,0.853,1.627,0.853c0.76,0,1.383-0.379,1.867-1.137
					c0.486-0.758,0.729-2.119,0.729-4.082V14.115h6.363V35.679z"/>
				<path fill="#282828" d="M180.901,14.115h5.928v3.513c0.885-1.435,1.781-2.46,2.689-3.076c0.906-0.616,2.012-0.924,3.314-0.924
					c1.762,0,3.141,0.681,4.135,2.041c0.996,1.36,1.494,3.462,1.494,6.305v13.706h-6.395V23.821c0-1.354-0.193-2.312-0.58-2.873
					c-0.385-0.562-0.928-0.843-1.625-0.843c-0.771,0-1.396,0.379-1.877,1.137c-0.479,0.758-0.719,2.119-0.719,4.081v10.355h-6.365
					V14.115z"/>
				<path fill="#282828" d="M209.938,5.912v8.203h3.504v6.051h-3.504v7.64c0,0.918,0.068,1.526,0.203,1.823
					c0.209,0.459,0.574,0.689,1.096,0.689c0.469,0,1.125-0.176,1.971-0.527l0.469,5.705c-1.574,0.447-3.045,0.67-4.41,0.67
					c-1.584,0-2.752-0.264-3.502-0.791c-0.752-0.527-1.307-1.328-1.666-2.403s-0.539-2.815-0.539-5.222v-7.584h-2.346v-6.051h2.346
					v-3.959L209.938,5.912z"/>
				<path fill="#282828" d="M222.276,21.1l-6.082-0.832c0.229-1.381,0.561-2.467,0.992-3.259c0.434-0.792,1.057-1.479,1.869-2.061
					c0.584-0.419,1.387-0.744,2.408-0.975c1.021-0.23,2.127-0.345,3.314-0.345c1.908,0,3.439,0.139,4.598,0.417
					c1.156,0.277,2.121,0.856,2.893,1.736c0.541,0.609,0.969,1.472,1.281,2.589c0.312,1.117,0.469,2.183,0.469,3.198v9.523
					c0,1.015,0.051,1.811,0.15,2.386c0.098,0.576,0.314,1.31,0.648,2.203h-5.973c-0.24-0.555-0.396-0.978-0.471-1.269
					c-0.072-0.291-0.145-0.748-0.219-1.371c-0.834,1.042-1.662,1.787-2.486,2.233c-1.125,0.596-2.434,0.894-3.924,0.894
					c-1.98,0-3.484-0.596-4.512-1.787c-1.027-1.191-1.539-2.66-1.539-4.406c0-1.638,0.369-2.985,1.109-4.041
					c0.74-1.056,2.105-1.841,4.098-2.355c2.387-0.623,3.934-1.059,4.643-1.31s1.459-0.579,2.252-0.985
					c0-1.015-0.162-1.726-0.484-2.132c-0.324-0.406-0.891-0.609-1.705-0.609c-1.041,0-1.824,0.217-2.346,0.65
					C222.854,19.53,222.526,20.166,222.276,21.1z M227.796,25.445c-0.875,0.406-1.787,0.765-2.736,1.076
					c-1.293,0.447-2.111,0.887-2.455,1.32c-0.354,0.447-0.531,0.955-0.531,1.523c0,0.65,0.174,1.181,0.523,1.594
					s0.863,0.619,1.541,0.619c0.709,0,1.367-0.223,1.979-0.67c0.609-0.447,1.041-0.992,1.297-1.635
					c0.256-0.643,0.383-1.479,0.383-2.507V25.445z"/>
				<path fill="#282828" d="M238.069,5.912h6.363v5.625h-6.363V5.912z M238.069,14.115h6.363v21.564h-6.363V14.115z"/>
				<path fill="#282828" d="M248.499,14.115h5.926v3.513c0.887-1.435,1.783-2.46,2.689-3.076c0.906-0.616,2.012-0.924,3.314-0.924
					c1.762,0,3.141,0.681,4.137,2.041s1.492,3.462,1.492,6.305v13.706h-6.395V23.821c0-1.354-0.193-2.312-0.578-2.873
					c-0.387-0.562-0.928-0.843-1.627-0.843c-0.771,0-1.396,0.379-1.875,1.137c-0.48,0.758-0.721,2.119-0.721,4.081v10.355h-6.363
					V14.115z"/>
				<path fill="#282828" d="M295.054,30.765h-8.043l-1.117,4.914h-7.232l8.615-29.767h7.727l8.615,29.767H296.2L295.054,30.765z
					 M293.583,24.328l-2.529-10.701l-2.504,10.701H293.583z"/>
				<path fill="#282828" d="M305.681,5.912h6.363v5.625h-6.363V5.912z M305.681,14.115h6.363v21.564h-6.363V14.115z"/>
				<path fill="#282828" d="M316.173,14.115h5.957v3.533c0.574-1.529,1.166-2.582,1.775-3.157s1.363-0.863,2.26-0.863
					c0.938,0,1.965,0.379,3.08,1.137l-1.971,5.889c-0.75-0.406-1.344-0.609-1.783-0.609c-0.834,0-1.479,0.447-1.938,1.34
					c-0.658,1.259-0.986,3.614-0.986,7.066v7.229h-6.395V14.115z"/>
			</g>
			<g>
				<rect x="106.974" y="44.52" fill="none" width="249.119" height="56.003"/>
				<path fill="#282828" d="M108.179,44.523h4.949l1.91,8.587l1.895-8.587h4.949v14.112h-3.084V47.873l-2.375,10.762h-2.791
					l-2.371-10.762v10.762h-3.082V44.523z"/>
				<path fill="#282828" d="M133.854,54.496h-6.781c0.062,0.629,0.209,1.097,0.441,1.405c0.326,0.443,0.754,0.664,1.279,0.664
					c0.332,0,0.648-0.096,0.947-0.289c0.184-0.122,0.379-0.337,0.59-0.645l3.332,0.356c-0.51,1.027-1.123,1.764-1.844,2.209
					s-1.754,0.669-3.1,0.669c-1.17,0-2.088-0.191-2.76-0.573c-0.67-0.382-1.225-0.988-1.666-1.819
					c-0.439-0.831-0.66-1.808-0.66-2.931c0-1.598,0.441-2.891,1.326-3.879c0.883-0.988,2.104-1.482,3.66-1.482
					c1.264,0,2.26,0.221,2.992,0.664c0.73,0.443,1.287,1.085,1.67,1.925c0.381,0.841,0.572,1.935,0.572,3.283V54.496z
					 M130.415,52.619c-0.066-0.757-0.242-1.299-0.527-1.626c-0.285-0.328-0.662-0.491-1.127-0.491c-0.537,0-0.967,0.247-1.287,0.741
					c-0.205,0.308-0.336,0.767-0.391,1.376H130.415z"/>
				<path fill="#282828" d="M141.991,54.631l3.215,0.423c-0.178,0.777-0.467,1.449-0.871,2.017
					c-0.406,0.568-0.922,1.009-1.551,1.324s-1.428,0.472-2.396,0.472c-0.938,0-1.717-0.101-2.34-0.303
					c-0.623-0.202-1.16-0.529-1.607-0.981c-0.449-0.452-0.801-0.982-1.057-1.592c-0.254-0.609-0.381-1.417-0.381-2.424
					c0-1.051,0.154-1.927,0.465-2.625c0.227-0.513,0.537-0.973,0.93-1.38c0.395-0.407,0.799-0.71,1.215-0.909
					c0.658-0.314,1.504-0.471,2.533-0.471c1.441,0,2.539,0.298,3.295,0.895c0.756,0.597,1.287,1.47,1.592,2.619l-3.184,0.491
					c-0.1-0.436-0.281-0.765-0.543-0.987c-0.264-0.221-0.617-0.332-1.061-0.332c-0.559,0-1.012,0.232-1.357,0.697
					c-0.348,0.464-0.52,1.167-0.52,2.109c0,0.839,0.172,1.477,0.514,1.912c0.344,0.436,0.781,0.653,1.314,0.653
					c0.443,0,0.814-0.131,1.117-0.395S141.841,55.176,141.991,54.631z"/>
				<path fill="#282828" d="M146.47,44.523h3.383v5.198c0.459-0.552,0.916-0.946,1.371-1.184c0.453-0.237,0.99-0.356,1.611-0.356
					c0.92,0,1.645,0.324,2.174,0.972c0.529,0.648,0.793,1.643,0.793,2.984v6.498h-3.398v-5.622c0-0.642-0.104-1.096-0.309-1.362
					c-0.205-0.266-0.492-0.399-0.863-0.399c-0.41,0-0.742,0.18-0.998,0.539c-0.254,0.359-0.381,1.004-0.381,1.935v4.909h-3.383
					V44.523z"/>
				<path fill="#282828" d="M160.905,51.724l-3.234-0.395c0.123-0.655,0.299-1.17,0.529-1.545c0.229-0.375,0.561-0.701,0.992-0.977
					c0.311-0.199,0.736-0.353,1.279-0.462c0.543-0.109,1.131-0.164,1.762-0.164c1.014,0,1.828,0.066,2.443,0.197
					c0.615,0.132,1.127,0.406,1.537,0.823c0.289,0.289,0.516,0.698,0.682,1.227c0.166,0.53,0.25,1.035,0.25,1.516v4.515
					c0,0.481,0.025,0.858,0.078,1.131s0.168,0.621,0.346,1.044h-3.176c-0.127-0.263-0.209-0.463-0.248-0.602
					s-0.078-0.354-0.117-0.65c-0.443,0.494-0.883,0.847-1.32,1.059c-0.6,0.282-1.295,0.423-2.086,0.423
					c-1.053,0-1.852-0.282-2.398-0.847c-0.545-0.564-0.818-1.261-0.818-2.089c0-0.776,0.197-1.415,0.59-1.916
					c0.395-0.5,1.119-0.873,2.178-1.117c1.27-0.295,2.092-0.502,2.469-0.621c0.377-0.119,0.775-0.274,1.195-0.467
					c0-0.481-0.086-0.818-0.256-1.011c-0.172-0.192-0.475-0.289-0.906-0.289c-0.555,0-0.971,0.103-1.246,0.308
					C161.212,50.979,161.038,51.281,160.905,51.724z M163.837,53.784c-0.465,0.192-0.949,0.363-1.453,0.51
					c-0.688,0.211-1.123,0.42-1.305,0.625c-0.189,0.212-0.283,0.453-0.283,0.722c0,0.308,0.094,0.56,0.279,0.755
					c0.186,0.196,0.457,0.294,0.818,0.294c0.377,0,0.727-0.106,1.051-0.318s0.555-0.47,0.689-0.775
					c0.137-0.305,0.203-0.701,0.203-1.189V53.784z"/>
				<path fill="#282828" d="M169.173,48.412h3.15v1.666c0.471-0.68,0.947-1.167,1.428-1.458c0.482-0.292,1.07-0.438,1.762-0.438
					c0.938,0,1.67,0.322,2.199,0.967s0.793,1.642,0.793,2.989v6.498h-3.398v-5.622c0-0.642-0.104-1.096-0.309-1.362
					c-0.205-0.266-0.492-0.399-0.863-0.399c-0.41,0-0.742,0.18-0.998,0.539c-0.254,0.359-0.381,1.004-0.381,1.935v4.909h-3.383
					V48.412z"/>
				<path fill="#282828" d="M180.649,44.523h3.383v2.667h-3.383V44.523z M180.649,48.412h3.383v10.223h-3.383V48.412z"/>
				<path fill="#282828" d="M192.772,54.631l3.217,0.423c-0.178,0.777-0.469,1.449-0.873,2.017
					c-0.404,0.568-0.922,1.009-1.549,1.324c-0.629,0.314-1.43,0.472-2.398,0.472c-0.936,0-1.715-0.101-2.34-0.303
					c-0.623-0.202-1.158-0.529-1.607-0.981s-0.801-0.982-1.055-1.592c-0.256-0.609-0.383-1.417-0.383-2.424
					c0-1.051,0.154-1.927,0.465-2.625c0.229-0.513,0.537-0.973,0.932-1.38c0.393-0.407,0.797-0.71,1.213-0.909
					c0.66-0.314,1.504-0.471,2.535-0.471c1.439,0,2.537,0.298,3.295,0.895c0.756,0.597,1.285,1.47,1.59,2.619l-3.182,0.491
					c-0.1-0.436-0.281-0.765-0.545-0.987c-0.264-0.221-0.615-0.332-1.059-0.332c-0.561,0-1.014,0.232-1.359,0.697
					s-0.52,1.167-0.52,2.109c0,0.839,0.172,1.477,0.516,1.912s0.781,0.653,1.312,0.653c0.443,0,0.816-0.131,1.117-0.395
					C192.397,55.581,192.624,55.176,192.772,54.631z"/>
				<path fill="#282828" d="M200.626,51.724l-3.232-0.395c0.121-0.655,0.297-1.17,0.527-1.545c0.23-0.375,0.561-0.701,0.994-0.977
					c0.309-0.199,0.736-0.353,1.279-0.462c0.543-0.109,1.129-0.164,1.762-0.164c1.014,0,1.828,0.066,2.443,0.197
					c0.613,0.132,1.127,0.406,1.537,0.823c0.287,0.289,0.516,0.698,0.682,1.227c0.166,0.53,0.248,1.035,0.248,1.516v4.515
					c0,0.481,0.027,0.858,0.08,1.131s0.166,0.621,0.344,1.044h-3.174c-0.127-0.263-0.211-0.463-0.25-0.602s-0.076-0.354-0.115-0.65
					c-0.443,0.494-0.885,0.847-1.322,1.059c-0.598,0.282-1.293,0.423-2.086,0.423c-1.053,0-1.852-0.282-2.396-0.847
					c-0.545-0.564-0.818-1.261-0.818-2.089c0-0.776,0.195-1.415,0.59-1.916c0.393-0.5,1.119-0.873,2.178-1.117
					c1.268-0.295,2.09-0.502,2.467-0.621c0.377-0.119,0.775-0.274,1.197-0.467c0-0.481-0.086-0.818-0.258-1.011
					c-0.172-0.192-0.473-0.289-0.906-0.289c-0.553,0-0.969,0.103-1.246,0.308C200.933,50.979,200.759,51.281,200.626,51.724z
					 M203.56,53.784c-0.465,0.192-0.951,0.363-1.455,0.51c-0.686,0.211-1.121,0.42-1.305,0.625
					c-0.188,0.212-0.281,0.453-0.281,0.722c0,0.308,0.092,0.56,0.277,0.755c0.186,0.196,0.459,0.294,0.818,0.294
					c0.377,0,0.729-0.106,1.053-0.318c0.322-0.212,0.553-0.47,0.689-0.775c0.135-0.305,0.203-0.701,0.203-1.189V53.784z"/>
				<path fill="#282828" d="M209.011,44.523h3.391v14.112h-3.391V44.523z"/>
				<path fill="#282828" d="M228.571,52.859l3.301,1.155c-0.223,1.072-0.572,1.967-1.049,2.686
					c-0.477,0.719-1.066,1.261-1.773,1.627s-1.605,0.549-2.697,0.549c-1.322,0-2.404-0.223-3.244-0.668
					c-0.84-0.446-1.564-1.23-2.174-2.352c-0.609-1.123-0.914-2.559-0.914-4.31c0-2.334,0.537-4.128,1.609-5.382
					s2.588-1.881,4.549-1.881c1.535,0,2.74,0.36,3.619,1.079s1.531,1.822,1.957,3.311l-3.324,0.857
					c-0.115-0.43-0.238-0.745-0.365-0.943c-0.211-0.333-0.469-0.59-0.773-0.77s-0.645-0.27-1.021-0.27
					c-0.854,0-1.508,0.397-1.961,1.192c-0.344,0.589-0.516,1.516-0.516,2.778c0,1.564,0.205,2.636,0.615,3.216
					s0.986,0.87,1.729,0.87c0.721,0,1.264-0.234,1.633-0.703C228.138,54.432,228.405,53.751,228.571,52.859z"/>
				<path fill="#282828" d="M233.06,53.553c0-1.56,0.453-2.845,1.363-3.855c0.908-1.011,2.135-1.516,3.68-1.516
					c1.768,0,3.104,0.594,4.006,1.781c0.727,0.957,1.088,2.134,1.088,3.533c0,1.573-0.449,2.861-1.35,3.865
					s-2.145,1.506-3.734,1.506c-1.42,0-2.566-0.417-3.441-1.251C233.597,56.582,233.06,55.228,233.06,53.553z M236.45,53.543
					c0,0.911,0.158,1.585,0.477,2.021s0.719,0.655,1.201,0.655c0.488,0,0.889-0.215,1.201-0.645c0.312-0.43,0.469-1.12,0.469-2.07
					c0-0.886-0.158-1.545-0.473-1.978c-0.316-0.433-0.707-0.65-1.172-0.65c-0.494,0-0.9,0.22-1.223,0.659
					C236.61,51.976,236.45,52.645,236.45,53.543z"/>
				<path fill="#282828" d="M244.827,48.412h3.148v1.666c0.471-0.68,0.947-1.167,1.43-1.458s1.068-0.438,1.762-0.438
					c0.936,0,1.668,0.322,2.197,0.967s0.793,1.642,0.793,2.989v6.498h-3.398v-5.622c0-0.642-0.102-1.096-0.307-1.362
					c-0.205-0.266-0.494-0.399-0.865-0.399c-0.408,0-0.742,0.18-0.996,0.539c-0.256,0.359-0.383,1.004-0.383,1.935v4.909h-3.381
					V48.412z"/>
				<path fill="#282828" d="M260.259,44.523v3.889h1.861v2.869h-1.861v3.622c0,0.436,0.035,0.724,0.107,0.864
					c0.111,0.218,0.305,0.327,0.582,0.327c0.248,0,0.598-0.083,1.047-0.25l0.248,2.705c-0.836,0.211-1.617,0.317-2.342,0.317
					c-0.844,0-1.463-0.125-1.861-0.375c-0.4-0.25-0.695-0.629-0.887-1.139c-0.189-0.51-0.285-1.334-0.285-2.476v-3.596h-1.246
					v-2.869h1.246v-1.877L260.259,44.523z"/>
				<path fill="#282828" d="M263.765,48.412h3.166v1.675c0.305-0.725,0.619-1.224,0.943-1.497s0.725-0.409,1.201-0.409
					c0.498,0,1.043,0.18,1.637,0.539l-1.047,2.792c-0.398-0.192-0.715-0.289-0.947-0.289c-0.443,0-0.787,0.211-1.031,0.635
					c-0.348,0.597-0.523,1.713-0.523,3.35v3.427h-3.398V48.412z"/>
				<path fill="#282828" d="M274.659,51.724l-3.232-0.395c0.121-0.655,0.297-1.17,0.527-1.545c0.23-0.375,0.561-0.701,0.994-0.977
					c0.309-0.199,0.736-0.353,1.279-0.462c0.543-0.109,1.129-0.164,1.762-0.164c1.014,0,1.828,0.066,2.443,0.197
					c0.613,0.132,1.127,0.406,1.537,0.823c0.287,0.289,0.516,0.698,0.682,1.227c0.166,0.53,0.248,1.035,0.248,1.516v4.515
					c0,0.481,0.027,0.858,0.08,1.131s0.166,0.621,0.344,1.044h-3.174c-0.127-0.263-0.211-0.463-0.25-0.602s-0.076-0.354-0.115-0.65
					c-0.443,0.494-0.885,0.847-1.322,1.059c-0.598,0.282-1.293,0.423-2.086,0.423c-1.053,0-1.852-0.282-2.396-0.847
					c-0.545-0.564-0.818-1.261-0.818-2.089c0-0.776,0.195-1.415,0.59-1.916c0.393-0.5,1.119-0.873,2.178-1.117
					c1.268-0.295,2.09-0.502,2.467-0.621c0.377-0.119,0.775-0.274,1.197-0.467c0-0.481-0.086-0.818-0.258-1.011
					c-0.172-0.192-0.473-0.289-0.906-0.289c-0.553,0-0.969,0.103-1.246,0.308C274.966,50.979,274.792,51.281,274.659,51.724z
					 M277.593,53.784c-0.465,0.192-0.951,0.363-1.455,0.51c-0.686,0.211-1.121,0.42-1.305,0.625
					c-0.188,0.212-0.281,0.453-0.281,0.722c0,0.308,0.092,0.56,0.277,0.755c0.186,0.196,0.459,0.294,0.818,0.294
					c0.377,0,0.729-0.106,1.053-0.318c0.322-0.212,0.553-0.47,0.689-0.775c0.135-0.305,0.203-0.701,0.203-1.189V53.784z"/>
				<path fill="#282828" d="M289.509,54.631l3.217,0.423c-0.178,0.777-0.469,1.449-0.873,2.017
					c-0.404,0.568-0.922,1.009-1.549,1.324c-0.629,0.314-1.43,0.472-2.398,0.472c-0.936,0-1.715-0.101-2.34-0.303
					c-0.623-0.202-1.158-0.529-1.607-0.981s-0.801-0.982-1.055-1.592c-0.256-0.609-0.383-1.417-0.383-2.424
					c0-1.051,0.154-1.927,0.465-2.625c0.229-0.513,0.537-0.973,0.932-1.38c0.393-0.407,0.797-0.71,1.213-0.909
					c0.66-0.314,1.504-0.471,2.535-0.471c1.439,0,2.537,0.298,3.295,0.895c0.756,0.597,1.285,1.47,1.59,2.619l-3.182,0.491
					c-0.1-0.436-0.281-0.765-0.545-0.987c-0.264-0.221-0.615-0.332-1.059-0.332c-0.561,0-1.014,0.232-1.359,0.697
					s-0.52,1.167-0.52,2.109c0,0.839,0.172,1.477,0.516,1.912s0.781,0.653,1.312,0.653c0.443,0,0.816-0.131,1.117-0.395
					C289.134,55.581,289.36,55.176,289.509,54.631z"/>
				<path fill="#282828" d="M298.36,44.523v3.889h1.861v2.869h-1.861v3.622c0,0.436,0.035,0.724,0.107,0.864
					c0.111,0.218,0.305,0.327,0.582,0.327c0.248,0,0.598-0.083,1.047-0.25l0.248,2.705c-0.836,0.211-1.617,0.317-2.342,0.317
					c-0.844,0-1.463-0.125-1.861-0.375c-0.4-0.25-0.695-0.629-0.887-1.139c-0.189-0.51-0.285-1.334-0.285-2.476v-3.596h-1.246
					v-2.869h1.246v-1.877L298.36,44.523z"/>
				<path fill="#282828" d="M301.417,53.553c0-1.56,0.455-2.845,1.363-3.855s2.137-1.516,3.682-1.516
					c1.768,0,3.102,0.594,4.006,1.781c0.725,0.957,1.088,2.134,1.088,3.533c0,1.573-0.451,2.861-1.35,3.865
					c-0.9,1.004-2.146,1.506-3.736,1.506c-1.418,0-2.564-0.417-3.439-1.251C301.954,56.582,301.417,55.228,301.417,53.553z
					 M304.808,53.543c0,0.911,0.16,1.585,0.479,2.021s0.719,0.655,1.201,0.655c0.486,0,0.887-0.215,1.199-0.645
					c0.314-0.43,0.471-1.12,0.471-2.07c0-0.886-0.158-1.545-0.475-1.978c-0.314-0.433-0.705-0.65-1.172-0.65
					c-0.492,0-0.9,0.22-1.221,0.659C304.968,51.976,304.808,52.645,304.808,53.543z"/>
				<path fill="#282828" d="M313.218,48.412h3.166v1.675c0.305-0.725,0.619-1.224,0.943-1.497s0.725-0.409,1.201-0.409
					c0.498,0,1.043,0.18,1.637,0.539l-1.047,2.792c-0.398-0.192-0.715-0.289-0.947-0.289c-0.443,0-0.787,0.211-1.031,0.635
					c-0.348,0.597-0.523,1.713-0.523,3.35v3.427h-3.398V48.412z"/>
				<path fill="#282828" d="M320.563,55.795l3.357-0.366c0.139,0.462,0.332,0.792,0.582,0.992c0.25,0.199,0.582,0.298,0.996,0.298
					c0.455,0,0.807-0.112,1.057-0.336c0.193-0.167,0.291-0.375,0.291-0.625c0-0.282-0.129-0.5-0.383-0.653
					c-0.184-0.109-0.668-0.244-1.455-0.404c-1.174-0.237-1.99-0.457-2.447-0.659c-0.457-0.202-0.842-0.543-1.154-1.024
					c-0.312-0.481-0.469-1.029-0.469-1.645c0-0.673,0.168-1.253,0.506-1.741s0.803-0.851,1.396-1.091
					c0.592-0.241,1.389-0.361,2.385-0.361c1.053,0,1.83,0.093,2.33,0.279c0.502,0.186,0.92,0.475,1.256,0.866
					s0.613,0.921,0.836,1.588l-3.209,0.366c-0.082-0.327-0.221-0.568-0.414-0.722c-0.268-0.205-0.588-0.308-0.965-0.308
					c-0.383,0-0.66,0.078-0.836,0.235c-0.174,0.157-0.262,0.348-0.262,0.572c0,0.25,0.111,0.439,0.334,0.567
					c0.221,0.128,0.703,0.244,1.445,0.346c1.125,0.147,1.961,0.353,2.51,0.616c0.549,0.263,0.967,0.638,1.258,1.125
					s0.438,1.022,0.438,1.606c0,0.59-0.154,1.164-0.461,1.721c-0.309,0.558-0.793,1.002-1.455,1.332s-1.564,0.495-2.705,0.495
					c-1.611,0-2.76-0.266-3.443-0.799C321.196,57.535,320.757,56.777,320.563,55.795z"/>
			</g>
		</g>
		<g>
			<path fill="#282828" d="M106.88,81.924c0.548-0.043,0.922-0.117,1.119-0.221c0.301-0.152,0.562-0.48,0.786-0.982l1.619-3.609
				l-0.682-4.493c-0.064-0.415-0.157-0.689-0.278-0.822s-0.378-0.209-0.768-0.225l0.076-0.434h4.695l-0.076,0.434
				c-0.412,0.016-0.716,0.059-0.91,0.128s-0.313,0.228-0.356,0.473c-0.013,0.07-0.019,0.158-0.019,0.265
				c0.001,0.107,0.01,0.219,0.026,0.337l0.556,3.66l2.738-3.104c0.142-0.161,0.261-0.309,0.354-0.443
				c0.148-0.226,0.239-0.434,0.272-0.622c0.05-0.285-0.039-0.479-0.267-0.582c-0.137-0.059-0.388-0.097-0.75-0.113l0.076-0.434
				h3.493l-0.076,0.434c-0.245,0.037-0.472,0.115-0.677,0.232c-0.327,0.182-0.68,0.483-1.058,0.905l-3.955,4.485l-1.374,3.102
				c-0.062,0.125-0.128,0.285-0.203,0.479c-0.074,0.194-0.119,0.332-0.134,0.413c-0.052,0.3,0.025,0.5,0.232,0.598
				c0.136,0.066,0.449,0.112,0.941,0.139l-0.075,0.434h-5.405L106.88,81.924z"/>
			<path fill="#282828" d="M122.43,75.02c0.708,0.448,0.969,1.209,0.78,2.285c-0.208,1.19-0.863,2.345-1.966,3.464
				c-1.201,1.217-2.438,1.826-3.71,1.826c-0.649,0-1.229-0.202-1.74-0.606c-0.511-0.404-0.683-1.086-0.515-2.047
				c0.209-1.196,0.862-2.354,1.959-3.473c1.202-1.223,2.446-1.834,3.735-1.834C121.541,74.635,122.026,74.763,122.43,75.02z
				 M117.094,81.604c0.082,0.312,0.312,0.467,0.688,0.467c0.698,0,1.467-0.803,2.305-2.408c0.699-1.349,1.135-2.515,1.307-3.497
				c0.046-0.262,0.05-0.467,0.01-0.614c-0.078-0.273-0.289-0.409-0.633-0.409c-0.803,0-1.626,0.851-2.47,2.555
				c-0.647,1.294-1.045,2.37-1.195,3.227C117.056,81.214,117.052,81.44,117.094,81.604z"/>
			<path fill="#282828" d="M124.008,80.613c0.092-0.246,0.187-0.472,0.283-0.68l1.429-3.186c0.068-0.142,0.121-0.265,0.159-0.369
				s0.065-0.208,0.084-0.311c0.037-0.213-0.009-0.354-0.137-0.422s-0.362-0.108-0.705-0.119l0.077-0.442
				c1.167-0.104,2.046-0.205,2.638-0.303c0.591-0.098,0.912-0.147,0.962-0.147l-1.21,2.563l-1.258,2.58
				c-0.06,0.12-0.131,0.278-0.214,0.475c-0.129,0.295-0.205,0.513-0.23,0.655c-0.023,0.137-0.007,0.237,0.05,0.303
				s0.147,0.098,0.271,0.098c0.265,0,0.659-0.261,1.184-0.782c0.523-0.521,1.05-1.216,1.578-2.084
				c0.343-0.562,0.661-1.135,0.953-1.72c0.195-0.388,0.495-1.019,0.9-1.893h1.982l-1.046,2.326
				c-0.041,0.088-0.227,0.501-0.556,1.241c-0.33,0.74-0.528,1.184-0.596,1.331c-0.132,0.29-0.25,0.559-0.354,0.807
				c-0.104,0.249-0.163,0.419-0.18,0.512c-0.018,0.104-0.007,0.185,0.035,0.242s0.102,0.086,0.178,0.086
				c0.175,0,0.443-0.191,0.805-0.573c0.207-0.213,0.398-0.437,0.577-0.672l0.315,0.213c-0.431,0.606-0.927,1.124-1.489,1.552
				c-0.564,0.429-1.104,0.643-1.624,0.643c-0.457,0-0.754-0.126-0.889-0.377c-0.092-0.169-0.113-0.393-0.064-0.671
				c0.047-0.268,0.109-0.496,0.186-0.684c0.076-0.188,0.238-0.531,0.483-1.028l-0.037-0.017c-0.847,0.983-1.466,1.639-1.854,1.966
				c-0.643,0.546-1.251,0.819-1.824,0.819c-0.278,0-0.513-0.071-0.702-0.213c-0.317-0.224-0.43-0.604-0.336-1.139
				C123.856,81.053,123.915,80.859,124.008,80.613z"/>
			<path fill="#282828" d="M132.278,82.358c0.74-1.6,1.357-2.976,1.852-4.128c0.555-1.24,0.853-1.977,0.895-2.211
				c0.035-0.208-0.01-0.341-0.135-0.401c-0.126-0.06-0.356-0.09-0.689-0.09l0.078-0.442c0.722-0.043,1.336-0.101,1.839-0.172
				c0.326-0.044,0.884-0.137,1.674-0.278l-1.453,2.973l0.071,0.017c0.643-0.928,1.142-1.586,1.498-1.974
				c0.627-0.677,1.174-1.015,1.643-1.015c0.328,0,0.551,0.109,0.668,0.327c0.116,0.219,0.152,0.461,0.105,0.729
				c-0.057,0.322-0.192,0.612-0.409,0.868c-0.217,0.257-0.479,0.385-0.784,0.385c-0.137,0-0.259-0.027-0.367-0.083
				c-0.107-0.054-0.192-0.136-0.256-0.245l-0.12-0.197c-0.023-0.033-0.047-0.06-0.073-0.082c-0.025-0.022-0.063-0.033-0.112-0.033
				c-0.213,0-0.542,0.29-0.986,0.868c-0.446,0.579-0.838,1.168-1.178,1.769c-0.236,0.415-0.542,1.005-0.915,1.769
				c-0.374,0.765-0.648,1.313-0.821,1.646H132.278z"/>
			<path fill="#282828" d="M142.46,81.924c0.448-0.06,0.792-0.229,1.031-0.507c0.24-0.278,0.614-0.963,1.121-2.054l3.088-6.883
				l-0.045-0.171c-0.072-0.3-0.209-0.5-0.411-0.598c-0.13-0.065-0.385-0.112-0.762-0.139l0.076-0.434h3.376l2.284,7.756l2.136-4.744
				c0.129-0.295,0.234-0.557,0.32-0.786c0.133-0.349,0.213-0.603,0.241-0.761c0.071-0.41-0.016-0.69-0.258-0.843
				c-0.159-0.093-0.454-0.155-0.885-0.188l0.076-0.434h3.446l-0.076,0.434l-0.243,0.033c-0.353,0.049-0.651,0.241-0.896,0.577
				c-0.244,0.335-0.584,0.983-1.02,1.943l-3.817,8.512h-0.415l-2.732-9.281l-2.72,6.007c-0.224,0.496-0.379,0.868-0.466,1.113
				c-0.055,0.153-0.093,0.303-0.119,0.45c-0.068,0.393,0.031,0.666,0.3,0.818c0.153,0.087,0.44,0.147,0.86,0.18l-0.075,0.434h-3.492
				L142.46,81.924z"/>
			<path fill="#282828" d="M157.893,76.385c1.211-1.178,2.416-1.767,3.617-1.767c0.519,0,0.927,0.128,1.223,0.384
				c0.296,0.256,0.403,0.619,0.322,1.087c-0.124,0.709-0.64,1.379-1.547,2.012c-0.909,0.632-2.014,1.036-3.316,1.21
				c-0.062,0.169-0.114,0.328-0.156,0.475s-0.071,0.268-0.087,0.36c-0.061,0.345-0.059,0.615,0.006,0.811
				c0.109,0.366,0.413,0.549,0.91,0.549c0.404,0,0.842-0.207,1.313-0.622c0.251-0.219,0.533-0.521,0.846-0.909l0.442,0.287
				c-0.544,0.704-1.029,1.22-1.458,1.548c-0.682,0.524-1.419,0.786-2.21,0.786c-0.59,0-1.107-0.214-1.555-0.643
				c-0.446-0.428-0.593-1.081-0.439-1.959C156.024,78.728,156.722,77.525,157.893,76.385z M161.551,75.367
				c-0.047-0.134-0.164-0.2-0.35-0.2c-0.393,0-0.835,0.316-1.325,0.948c-0.489,0.632-0.98,1.517-1.475,2.656
				c1.004-0.218,1.763-0.637,2.275-1.258c0.512-0.621,0.811-1.174,0.896-1.659C161.605,75.663,161.599,75.5,161.551,75.367z"/>
			<path fill="#282828" d="M163.236,80.745c0.067-0.169,0.163-0.394,0.289-0.672l1.689-3.768c0.019-0.043,0.036-0.087,0.052-0.131
				c0.016-0.044,0.027-0.085,0.033-0.123c0.04-0.224-0.008-0.363-0.14-0.418s-0.385-0.09-0.758-0.106l0.077-0.442
				c0.318-0.022,0.783-0.067,1.395-0.135c0.61-0.068,1.045-0.127,1.303-0.176l0.74-0.139l-2.137,4.774
				c-0.182,0.41-0.305,0.694-0.37,0.852c-0.169,0.404-0.264,0.666-0.285,0.786c-0.021,0.12-0.007,0.198,0.042,0.233
				c0.048,0.036,0.104,0.054,0.171,0.054c0.169,0,0.405-0.145,0.708-0.435s0.577-0.593,0.824-0.909l0.326,0.238
				c-0.687,0.802-1.199,1.343-1.538,1.622c-0.556,0.458-1.104,0.688-1.646,0.688c-0.306,0-0.564-0.094-0.774-0.283
				c-0.21-0.188-0.282-0.476-0.214-0.864C163.048,81.255,163.119,81.04,163.236,80.745z M168.845,71.219
				c0.181,0.218,0.243,0.483,0.188,0.794c-0.054,0.311-0.209,0.577-0.467,0.798c-0.257,0.221-0.541,0.332-0.853,0.332
				c-0.311,0-0.558-0.111-0.74-0.332s-0.246-0.487-0.192-0.798c0.055-0.311,0.211-0.576,0.471-0.794
				c0.259-0.219,0.545-0.328,0.855-0.328C168.419,70.892,168.664,71,168.845,71.219z"/>
			<path fill="#282828" d="M168.261,81.924c-0.216-0.208-0.293-0.483-0.232-0.827c0.049-0.278,0.207-0.531,0.476-0.758
				c0.27-0.226,0.737-0.504,1.407-0.832c-0.426-0.164-0.717-0.412-0.878-0.745c-0.16-0.333-0.198-0.734-0.116-1.204
				c0.123-0.705,0.569-1.371,1.34-1.999c0.771-0.628,1.696-0.942,2.777-0.942c0.562,0,1.039,0.09,1.432,0.271
				c0.391,0.18,0.537,0.27,0.439,0.27h1.867l-0.166,0.95h-1.131c0.009,0.142,0.012,0.265,0.01,0.368
				c-0.001,0.104-0.014,0.221-0.037,0.352c-0.141,0.808-0.58,1.5-1.316,2.077s-1.682,0.864-2.834,0.864
				c-0.251,0-0.545-0.03-0.885-0.09c-0.088,0-0.19,0.068-0.311,0.205c-0.119,0.136-0.188,0.253-0.205,0.352
				c-0.031,0.18,0.074,0.341,0.317,0.483c0.113,0.071,0.255,0.134,0.426,0.188l0.849,0.254c0.741,0.224,1.258,0.442,1.548,0.655
				c0.499,0.36,0.693,0.857,0.583,1.49c-0.124,0.71-0.602,1.3-1.432,1.769c-0.83,0.47-1.799,0.705-2.907,0.705
				c-0.727,0-1.342-0.088-1.847-0.262c-0.871-0.295-1.241-0.814-1.111-1.557c0.084-0.48,0.398-0.871,0.941-1.171
				c0.301-0.164,0.816-0.347,1.545-0.548C168.555,82.145,168.371,82.039,168.261,81.924z M171.533,83.415
				c-0.134-0.153-0.33-0.287-0.589-0.402c-0.178-0.076-0.466-0.184-0.865-0.323c-0.398-0.14-0.639-0.209-0.721-0.209
				c0.015-0.082-0.225,0.036-0.717,0.353c-0.492,0.316-0.775,0.685-0.849,1.105c-0.046,0.262,0.014,0.502,0.177,0.721
				c0.269,0.372,0.787,0.557,1.558,0.557c0.605,0,1.099-0.11,1.479-0.328c0.379-0.219,0.599-0.5,0.659-0.844
				C171.712,83.777,171.667,83.567,171.533,83.415z M172.725,78.195c0.465-0.711,0.755-1.391,0.868-2.04
				c0.051-0.294,0.033-0.537-0.054-0.728c-0.087-0.19-0.267-0.286-0.54-0.286c-0.519,0-1.001,0.381-1.449,1.144
				c-0.446,0.763-0.723,1.444-0.827,2.043c-0.054,0.305-0.022,0.537,0.091,0.695c0.115,0.158,0.281,0.237,0.5,0.237
				C171.788,79.262,172.259,78.906,172.725,78.195z"/>
			<path fill="#282828" d="M175.646,82.358l4.268-9.514c0.045-0.104,0.097-0.23,0.155-0.378s0.096-0.268,0.112-0.361
				c0.044-0.251-0.009-0.405-0.157-0.46c-0.148-0.055-0.415-0.076-0.799-0.066l0.077-0.442c0.821-0.082,1.381-0.143,1.679-0.184
				s0.929-0.146,1.892-0.315l-2.985,6.872l0.034,0.017c-0.064,0.054-0.026,0.005,0.111-0.148c0.139-0.153,0.344-0.374,0.618-0.663
				c0.614-0.655,1.179-1.166,1.69-1.531c0.513-0.366,1.027-0.549,1.544-0.549c0.392,0,0.685,0.109,0.878,0.327
				c0.193,0.219,0.252,0.546,0.176,0.983c-0.032,0.18-0.081,0.358-0.15,0.532c-0.069,0.175-0.225,0.505-0.468,0.991l-1.728,3.473
				c-0.028,0.071-0.046,0.12-0.051,0.147c-0.016,0.087,0,0.157,0.046,0.209c0.045,0.052,0.104,0.078,0.175,0.078
				c0.147,0,0.399-0.18,0.758-0.541c0.181-0.191,0.433-0.478,0.756-0.86l0.324,0.254c-0.637,0.77-1.126,1.3-1.467,1.589
				c-0.57,0.48-1.131,0.721-1.681,0.721c-0.303,0-0.552-0.089-0.746-0.267c-0.193-0.177-0.258-0.457-0.19-0.839
				c0.043-0.246,0.156-0.583,0.34-1.012c0.185-0.429,0.407-0.908,0.669-1.437l1.254-2.507c0.018-0.038,0.034-0.078,0.05-0.119
				s0.026-0.08,0.033-0.119c0.027-0.158,0.002-0.262-0.076-0.312c-0.079-0.049-0.164-0.073-0.256-0.073
				c-0.332,0-0.769,0.27-1.308,0.811c-0.541,0.541-0.987,1.062-1.342,1.564c-0.36,0.508-0.743,1.155-1.149,1.941
				c-0.227,0.453-0.574,1.182-1.046,2.187H175.646z"/>
			<path fill="#282828" d="M185.414,81.195l3.75-8.36c0.08-0.18,0.141-0.324,0.183-0.433c0.04-0.109,0.067-0.205,0.082-0.286
				c0.042-0.24-0.005-0.387-0.14-0.442c-0.135-0.054-0.407-0.082-0.816-0.082l0.077-0.442l1.772-0.213l1.794-0.287l-2.389,5.407
				c0.426-0.477,0.853-0.833,1.279-1.068c0.427-0.236,0.864-0.354,1.311-0.354c0.546,0,0.959,0.186,1.238,0.557
				c0.28,0.372,0.356,0.917,0.23,1.638c-0.228,1.306-0.957,2.564-2.19,3.776c-1.353,1.327-2.776,1.99-4.272,1.99
				c-0.552,0-1.042-0.117-1.471-0.352c-0.428-0.234-0.625-0.448-0.592-0.639C185.268,81.566,185.318,81.43,185.414,81.195z
				 M191.634,76.035c-0.104-0.175-0.288-0.262-0.553-0.262c-0.43,0-0.9,0.325-1.41,0.975c-0.277,0.355-0.551,0.789-0.822,1.302
				c-0.228,0.426-0.534,1.067-0.919,1.925c-0.384,0.857-0.594,1.381-0.627,1.572c-0.016,0.087,0.002,0.184,0.052,0.291
				c0.05,0.106,0.191,0.16,0.427,0.16c0.891,0,1.771-0.713,2.644-2.138c0.692-1.125,1.112-2.107,1.26-2.948
				C191.756,76.502,191.739,76.21,191.634,76.035z"/>
			<path fill="#282828" d="M201.188,75.02c0.708,0.448,0.969,1.209,0.78,2.285c-0.208,1.19-0.863,2.345-1.966,3.464
				c-1.201,1.217-2.438,1.826-3.71,1.826c-0.649,0-1.229-0.202-1.74-0.606c-0.511-0.404-0.683-1.086-0.515-2.047
				c0.209-1.196,0.862-2.354,1.959-3.473c1.202-1.223,2.446-1.834,3.735-1.834C200.299,74.635,200.784,74.763,201.188,75.02z
				 M195.852,81.604c0.082,0.312,0.312,0.467,0.688,0.467c0.698,0,1.467-0.803,2.305-2.408c0.699-1.349,1.135-2.515,1.307-3.497
				c0.046-0.262,0.05-0.467,0.01-0.614c-0.078-0.273-0.289-0.409-0.633-0.409c-0.803,0-1.626,0.851-2.47,2.555
				c-0.647,1.294-1.045,2.37-1.195,3.227C195.813,81.214,195.81,81.44,195.852,81.604z"/>
			<path fill="#282828" d="M201.707,82.358c0.74-1.6,1.358-2.976,1.852-4.128c0.556-1.24,0.853-1.977,0.894-2.211
				c0.037-0.208-0.008-0.341-0.134-0.401s-0.356-0.09-0.689-0.09l0.077-0.442c0.723-0.043,1.337-0.101,1.84-0.172
				c0.326-0.044,0.884-0.137,1.674-0.278l-1.453,2.973l0.071,0.017c0.643-0.928,1.142-1.586,1.498-1.974
				c0.626-0.677,1.174-1.015,1.643-1.015c0.328,0,0.55,0.109,0.667,0.327c0.117,0.219,0.153,0.461,0.106,0.729
				c-0.057,0.322-0.192,0.612-0.409,0.868c-0.217,0.257-0.479,0.385-0.784,0.385c-0.137,0-0.259-0.027-0.366-0.083
				c-0.108-0.054-0.193-0.136-0.257-0.245l-0.12-0.197c-0.023-0.033-0.047-0.06-0.073-0.082c-0.025-0.022-0.063-0.033-0.112-0.033
				c-0.213,0-0.542,0.29-0.986,0.868c-0.446,0.579-0.838,1.168-1.178,1.769c-0.236,0.415-0.542,1.005-0.915,1.769
				c-0.374,0.765-0.647,1.313-0.821,1.646H201.707z"/>
			<path fill="#282828" d="M208.275,82.358l4.267-9.514c0.046-0.104,0.098-0.23,0.156-0.378s0.096-0.268,0.112-0.361
				c0.044-0.251-0.009-0.405-0.157-0.46c-0.148-0.055-0.415-0.076-0.799-0.066l0.077-0.442c0.821-0.082,1.381-0.143,1.679-0.184
				s0.929-0.146,1.892-0.315l-2.985,6.872l0.034,0.017c-0.064,0.054-0.026,0.005,0.111-0.148c0.138-0.153,0.344-0.374,0.618-0.663
				c0.614-0.655,1.178-1.166,1.69-1.531c0.513-0.366,1.027-0.549,1.544-0.549c0.392,0,0.684,0.109,0.879,0.327
				c0.192,0.219,0.251,0.546,0.175,0.983c-0.032,0.18-0.081,0.358-0.15,0.532c-0.069,0.175-0.225,0.505-0.468,0.991l-1.729,3.473
				c-0.027,0.071-0.045,0.12-0.05,0.147c-0.015,0.087,0,0.157,0.046,0.209c0.045,0.052,0.104,0.078,0.175,0.078
				c0.147,0,0.399-0.18,0.757-0.541c0.182-0.191,0.434-0.478,0.757-0.86l0.324,0.254c-0.637,0.77-1.126,1.3-1.467,1.589
				c-0.57,0.48-1.131,0.721-1.681,0.721c-0.303,0-0.551-0.089-0.746-0.267c-0.193-0.177-0.258-0.457-0.191-0.839
				c0.043-0.246,0.157-0.583,0.342-1.012c0.184-0.429,0.406-0.908,0.668-1.437l1.254-2.507c0.018-0.038,0.034-0.078,0.05-0.119
				s0.026-0.08,0.033-0.119c0.027-0.158,0.002-0.262-0.077-0.312c-0.078-0.049-0.163-0.073-0.255-0.073
				c-0.332,0-0.769,0.27-1.308,0.811c-0.541,0.541-0.988,1.062-1.342,1.564c-0.36,0.508-0.743,1.155-1.149,1.941
				c-0.227,0.453-0.574,1.182-1.046,2.187H208.275z"/>
			<path fill="#282828" d="M225.431,75.02c0.708,0.448,0.969,1.209,0.78,2.285c-0.208,1.19-0.864,2.345-1.966,3.464
				c-1.201,1.217-2.438,1.826-3.71,1.826c-0.649,0-1.229-0.202-1.74-0.606c-0.511-0.404-0.683-1.086-0.515-2.047
				c0.209-1.196,0.861-2.354,1.959-3.473c1.202-1.223,2.446-1.834,3.735-1.834C224.542,74.635,225.027,74.763,225.431,75.02z
				 M220.095,81.604c0.082,0.312,0.312,0.467,0.688,0.467c0.698,0,1.467-0.803,2.305-2.408c0.7-1.349,1.135-2.515,1.307-3.497
				c0.046-0.262,0.05-0.467,0.01-0.614c-0.078-0.273-0.289-0.409-0.633-0.409c-0.803,0-1.626,0.851-2.47,2.555
				c-0.647,1.294-1.045,2.37-1.195,3.227C220.057,81.214,220.053,81.44,220.095,81.604z"/>
			<path fill="#282828" d="M233.817,75.02c0.708,0.448,0.969,1.209,0.78,2.285c-0.208,1.19-0.864,2.345-1.966,3.464
				c-1.201,1.217-2.438,1.826-3.71,1.826c-0.649,0-1.229-0.202-1.74-0.606c-0.511-0.404-0.683-1.086-0.515-2.047
				c0.209-1.196,0.861-2.354,1.959-3.473c1.202-1.223,2.446-1.834,3.735-1.834C232.929,74.635,233.414,74.763,233.817,75.02z
				 M228.481,81.604c0.082,0.312,0.312,0.467,0.688,0.467c0.698,0,1.467-0.803,2.305-2.408c0.7-1.349,1.135-2.515,1.307-3.497
				c0.046-0.262,0.05-0.467,0.01-0.614c-0.078-0.273-0.289-0.409-0.633-0.409c-0.803,0-1.626,0.851-2.47,2.555
				c-0.647,1.294-1.045,2.37-1.195,3.227C228.443,81.214,228.439,81.44,228.481,81.604z"/>
			<path fill="#282828" d="M240.995,74.806c0.118,0.077,0.239,0.194,0.364,0.353l1.231-2.766c0.026-0.055,0.047-0.109,0.062-0.165
				c0.015-0.055,0.026-0.106,0.035-0.156c0.034-0.197-0.002-0.332-0.109-0.402c-0.108-0.071-0.271-0.107-0.489-0.107h-0.345
				l0.077-0.442l0.73-0.065c0.569-0.05,1.01-0.099,1.323-0.148c0.313-0.049,0.824-0.139,1.532-0.27l-3.045,6.79
				c-0.239,0.529-0.563,1.257-0.97,2.183c-0.407,0.925-0.618,1.435-0.635,1.528c-0.014,0.082-0.005,0.142,0.029,0.18
				c0.034,0.039,0.082,0.058,0.143,0.058c0.125,0,0.321-0.135,0.59-0.405s0.507-0.537,0.717-0.798l0.321,0.27
				c-0.557,0.656-1,1.122-1.328,1.401c-0.572,0.492-1.089,0.737-1.549,0.737c-0.24,0-0.435-0.06-0.583-0.18
				c-0.236-0.18-0.316-0.486-0.241-0.917c0.012-0.071,0.049-0.195,0.11-0.373c0.06-0.177,0.142-0.4,0.243-0.668
				c-0.518,0.656-0.949,1.125-1.293,1.409c-0.6,0.497-1.211,0.745-1.832,0.745c-0.491,0-0.879-0.19-1.164-0.569
				c-0.285-0.379-0.361-0.948-0.229-1.708c0.209-1.196,0.923-2.438,2.142-3.727c1.245-1.315,2.378-1.974,3.398-1.974
				C240.539,74.618,240.793,74.681,240.995,74.806z M236.829,81.101c0.096,0.183,0.254,0.274,0.472,0.274
				c0.659,0,1.436-0.778,2.329-2.334c0.75-1.294,1.178-2.245,1.284-2.851c0.037-0.213,0.04-0.385,0.008-0.516
				c-0.062-0.24-0.231-0.36-0.509-0.36c-0.623,0-1.376,0.694-2.262,2.081c-0.795,1.239-1.258,2.236-1.39,2.989
				C236.71,80.679,236.733,80.918,236.829,81.101z"/>
			<path fill="#282828" d="M246.417,81.924c0.434-0.049,0.753-0.15,0.958-0.302c0.204-0.153,0.408-0.453,0.611-0.9l3.373-7.521
				c0.074-0.175,0.144-0.344,0.208-0.508c0.063-0.164,0.105-0.3,0.125-0.409c0.049-0.284,0.004-0.463-0.136-0.537
				c-0.141-0.074-0.46-0.133-0.961-0.176l0.076-0.434h5.314l-0.076,0.434c-0.595,0.06-1.004,0.151-1.228,0.274
				c-0.224,0.123-0.446,0.433-0.67,0.929l-1.487,3.334h3.986l1.305-2.908c0.081-0.191,0.15-0.365,0.21-0.52
				c0.059-0.156,0.098-0.288,0.117-0.397c0.051-0.295-0.024-0.489-0.225-0.582c-0.131-0.061-0.42-0.104-0.866-0.131l0.076-0.434
				h4.995l-0.076,0.434c-0.396,0.049-0.68,0.126-0.852,0.229c-0.264,0.169-0.503,0.494-0.718,0.974l-3.374,7.522l-0.24,0.581
				c-0.049,0.125-0.078,0.203-0.09,0.233c-0.01,0.03-0.02,0.066-0.027,0.11c-0.05,0.289,0.039,0.482,0.268,0.581
				c0.137,0.06,0.422,0.101,0.854,0.123l-0.075,0.434h-5.331l0.076-0.434c0.594-0.06,1.005-0.151,1.231-0.274
				s0.45-0.432,0.674-0.928l1.738-3.876h-3.986l-1.548,3.451c-0.109,0.259-0.187,0.443-0.227,0.554
				c-0.041,0.11-0.075,0.243-0.103,0.4c-0.046,0.265-0.002,0.433,0.133,0.503c0.136,0.07,0.455,0.127,0.96,0.17l-0.075,0.434h-4.995
				L246.417,81.924z"/>
			<path fill="#282828" d="M262.744,76.385c1.211-1.178,2.416-1.767,3.617-1.767c0.519,0,0.927,0.128,1.223,0.384
				c0.296,0.256,0.403,0.619,0.322,1.087c-0.124,0.709-0.64,1.379-1.547,2.012c-0.909,0.632-2.014,1.036-3.316,1.21
				c-0.062,0.169-0.114,0.328-0.156,0.475s-0.071,0.268-0.087,0.36c-0.061,0.345-0.059,0.615,0.006,0.811
				c0.109,0.366,0.413,0.549,0.91,0.549c0.404,0,0.842-0.207,1.313-0.622c0.251-0.219,0.533-0.521,0.846-0.909l0.442,0.287
				c-0.544,0.704-1.029,1.22-1.458,1.548c-0.682,0.524-1.419,0.786-2.21,0.786c-0.59,0-1.107-0.214-1.555-0.643
				c-0.446-0.428-0.593-1.081-0.439-1.959C260.876,78.728,261.573,77.525,262.744,76.385z M266.402,75.367
				c-0.047-0.134-0.164-0.2-0.35-0.2c-0.393,0-0.835,0.316-1.325,0.948c-0.489,0.632-0.98,1.517-1.475,2.656
				c1.004-0.218,1.763-0.637,2.275-1.258c0.512-0.621,0.811-1.174,0.896-1.659C266.457,75.663,266.45,75.5,266.402,75.367z"/>
			<path fill="#282828" d="M269.887,76.608c1.246-1.327,2.394-1.99,3.44-1.99c0.426,0,0.717,0.125,0.876,0.376
				c0.093,0.153,0.153,0.41,0.184,0.77l0.441-0.893l1.772-0.123l-1.777,3.923c-0.254,0.557-0.438,0.983-0.556,1.278
				c-0.246,0.562-0.39,0.964-0.432,1.204c-0.017,0.098-0.007,0.167,0.03,0.205c0.036,0.038,0.082,0.057,0.137,0.057
				c0.098,0,0.2-0.037,0.306-0.111c0.105-0.073,0.229-0.179,0.367-0.315c0.064-0.06,0.178-0.173,0.337-0.339
				c0.16-0.167,0.295-0.308,0.401-0.422l0.308,0.254c-0.569,0.666-1.093,1.188-1.57,1.564c-0.479,0.377-0.928,0.565-1.348,0.565
				c-0.258,0-0.488-0.096-0.695-0.287c-0.208-0.191-0.278-0.473-0.213-0.844c0.024-0.142,0.155-0.489,0.395-1.041
				c0.025-0.021-0.002,0.017-0.082,0.115s-0.202,0.243-0.366,0.434c-0.373,0.448-0.787,0.828-1.243,1.139s-0.93,0.467-1.422,0.467
				c-0.441,0-0.825-0.167-1.148-0.5c-0.324-0.333-0.416-0.898-0.277-1.695C267.967,79.167,268.679,77.902,269.887,76.608z
				 M273.926,75.699c-0.06-0.251-0.231-0.376-0.515-0.376c-0.606,0-1.354,0.718-2.242,2.154c-0.784,1.273-1.236,2.248-1.354,2.924
				c-0.047,0.268-0.02,0.5,0.08,0.696c0.099,0.196,0.258,0.295,0.476,0.295c0.556,0.005,1.314-0.731,2.276-2.212
				c0.718-1.239,1.141-2.222,1.268-2.948C273.952,76.013,273.956,75.835,273.926,75.699z"/>
			<path fill="#282828" d="M276.22,80.941c0.068-0.186,0.191-0.475,0.369-0.868l2.042-4.554h-0.854l0.1-0.573
				c0.595-0.224,1.106-0.47,1.533-0.737c0.753-0.47,1.42-1.073,2-1.81h0.606l-1.091,2.432h1.204l-0.12,0.688h-1.4l-1.762,3.89
				c-0.158,0.344-0.283,0.631-0.378,0.86c-0.162,0.393-0.255,0.663-0.281,0.811c-0.018,0.104,0.002,0.172,0.059,0.205
				s0.107,0.05,0.151,0.05c0.158,0,0.386-0.137,0.682-0.41c0.296-0.272,0.579-0.584,0.849-0.934l0.326,0.238
				c-0.63,0.753-1.121,1.277-1.473,1.572c-0.595,0.492-1.177,0.737-1.746,0.737c-0.328,0-0.583-0.108-0.764-0.324
				c-0.182-0.215-0.243-0.49-0.185-0.823C276.107,81.276,276.151,81.126,276.22,80.941z"/>
			<path fill="#282828" d="M281.135,80.745c0.067-0.169,0.163-0.394,0.289-0.672l1.689-3.768c0.019-0.043,0.036-0.087,0.052-0.131
				c0.016-0.044,0.027-0.085,0.033-0.123c0.04-0.224-0.008-0.363-0.14-0.418s-0.385-0.09-0.758-0.106l0.077-0.442
				c0.318-0.022,0.783-0.067,1.395-0.135c0.61-0.068,1.045-0.127,1.303-0.176l0.74-0.139l-2.137,4.774
				c-0.182,0.41-0.305,0.694-0.37,0.852c-0.169,0.404-0.264,0.666-0.285,0.786c-0.021,0.12-0.007,0.198,0.042,0.233
				c0.048,0.036,0.104,0.054,0.171,0.054c0.169,0,0.405-0.145,0.708-0.435s0.577-0.593,0.824-0.909l0.326,0.238
				c-0.687,0.802-1.199,1.343-1.538,1.622c-0.556,0.458-1.104,0.688-1.646,0.688c-0.306,0-0.564-0.094-0.774-0.283
				c-0.21-0.188-0.282-0.476-0.214-0.864C280.946,81.255,281.018,81.04,281.135,80.745z M286.743,71.219
				c0.181,0.218,0.243,0.483,0.188,0.794c-0.054,0.311-0.209,0.577-0.467,0.798c-0.257,0.221-0.541,0.332-0.853,0.332
				c-0.311,0-0.558-0.111-0.74-0.332s-0.246-0.487-0.192-0.798c0.055-0.311,0.211-0.576,0.471-0.794
				c0.259-0.219,0.545-0.328,0.855-0.328C286.317,70.892,286.562,71,286.743,71.219z"/>
			<path fill="#282828" d="M285.37,82.358l2.402-5.356c0.099-0.218,0.172-0.391,0.222-0.516c0.095-0.235,0.151-0.398,0.168-0.492
				c0.035-0.201-0.007-0.327-0.123-0.376c-0.117-0.049-0.355-0.079-0.714-0.09l0.078-0.442c0.702-0.043,1.251-0.093,1.646-0.147
				c0.396-0.055,0.988-0.156,1.779-0.303l-1.536,3.104l0.039,0.024c-0.032,0.028,0.177-0.222,0.626-0.749s0.864-0.954,1.246-1.282
				c0.376-0.333,0.757-0.599,1.141-0.799c0.383-0.199,0.768-0.298,1.151-0.298c0.357,0,0.644,0.101,0.858,0.303
				c0.214,0.202,0.282,0.533,0.202,0.991c-0.075,0.426-0.485,1.365-1.231,2.818c-0.751,1.447-1.134,2.222-1.152,2.326
				c-0.017,0.098-0.001,0.173,0.051,0.225c0.05,0.052,0.106,0.078,0.166,0.078c0.147,0,0.398-0.186,0.753-0.557
				c0.188-0.197,0.396-0.44,0.627-0.729l0.326,0.238c-0.526,0.671-0.958,1.155-1.296,1.45c-0.584,0.508-1.153,0.762-1.709,0.762
				c-0.296,0-0.548-0.087-0.753-0.262c-0.205-0.174-0.275-0.451-0.209-0.827c0.041-0.24,0.16-0.59,0.354-1.048
				c0.195-0.458,0.409-0.931,0.642-1.417l1.204-2.507c0.027-0.06,0.05-0.111,0.068-0.155c0.019-0.043,0.032-0.087,0.04-0.131
				c0.021-0.125-0.006-0.213-0.082-0.262c-0.075-0.049-0.161-0.073-0.259-0.073c-0.342,0-0.768,0.266-1.278,0.798
				c-0.51,0.532-0.945,1.063-1.303,1.593c-0.388,0.574-0.729,1.155-1.023,1.745c-0.295,0.59-0.662,1.378-1.102,2.367H285.37z"/>
			<path fill="#282828" d="M295.487,81.924c-0.215-0.208-0.292-0.483-0.231-0.827c0.048-0.278,0.207-0.531,0.476-0.758
				c0.27-0.226,0.737-0.504,1.407-0.832c-0.426-0.164-0.717-0.412-0.878-0.745c-0.16-0.333-0.198-0.734-0.116-1.204
				c0.123-0.705,0.569-1.371,1.339-1.999c0.771-0.628,1.697-0.942,2.778-0.942c0.562,0,1.039,0.09,1.432,0.271
				c0.392,0.18,0.537,0.27,0.439,0.27H304l-0.166,0.95h-1.131c0.009,0.142,0.012,0.265,0.01,0.368
				c-0.001,0.104-0.014,0.221-0.037,0.352c-0.141,0.808-0.58,1.5-1.316,2.077s-1.682,0.864-2.834,0.864
				c-0.251,0-0.546-0.03-0.885-0.09c-0.088,0-0.19,0.068-0.31,0.205c-0.12,0.136-0.188,0.253-0.205,0.352
				c-0.032,0.18,0.074,0.341,0.316,0.483c0.113,0.071,0.255,0.134,0.426,0.188l0.849,0.254c0.741,0.224,1.258,0.442,1.548,0.655
				c0.499,0.36,0.693,0.857,0.583,1.49c-0.124,0.71-0.602,1.3-1.432,1.769c-0.83,0.47-1.799,0.705-2.907,0.705
				c-0.727,0-1.342-0.088-1.847-0.262c-0.871-0.295-1.241-0.814-1.111-1.557c0.084-0.48,0.397-0.871,0.941-1.171
				c0.302-0.164,0.816-0.347,1.545-0.548C295.782,82.145,295.599,82.039,295.487,81.924z M298.761,83.415
				c-0.134-0.153-0.33-0.287-0.589-0.402c-0.178-0.076-0.466-0.184-0.864-0.323c-0.4-0.14-0.64-0.209-0.722-0.209
				c0.015-0.082-0.225,0.036-0.717,0.353c-0.492,0.316-0.775,0.685-0.849,1.105c-0.046,0.262,0.014,0.502,0.177,0.721
				c0.269,0.372,0.787,0.557,1.558,0.557c0.605,0,1.099-0.11,1.479-0.328c0.379-0.219,0.599-0.5,0.659-0.844
				C298.939,83.777,298.896,83.567,298.761,83.415z M299.952,78.195c0.465-0.711,0.755-1.391,0.868-2.04
				c0.052-0.294,0.033-0.537-0.054-0.728c-0.087-0.19-0.267-0.286-0.54-0.286c-0.519,0-1.001,0.381-1.449,1.144
				c-0.446,0.763-0.723,1.444-0.827,2.043c-0.054,0.305-0.022,0.537,0.091,0.695c0.115,0.158,0.281,0.237,0.5,0.237
				C299.016,79.262,299.486,78.906,299.952,78.195z"/>
			<path fill="#282828" d="M312.731,74.941c0.007-0.117,0.025-0.261,0.055-0.43c0.204-1.168,0.652-2.058,1.344-2.67
				c0.69-0.611,1.479-0.917,2.363-0.917c0.715,0,1.248,0.183,1.6,0.549c0.351,0.366,0.479,0.822,0.383,1.368
				c-0.122,0.699-0.608,1.327-1.459,1.884c-0.476,0.311-1.172,0.645-2.092,0.999c0,0.749,0.094,1.499,0.278,2.252
				c0.105,0.431,0.269,0.947,0.491,1.548c0.51-0.513,0.862-0.887,1.057-1.122c0.325-0.399,0.513-0.735,0.561-1.008
				c0.043-0.246-0.032-0.423-0.227-0.533c-0.115-0.06-0.312-0.103-0.591-0.131l0.074-0.426h3.546l-0.074,0.426
				c-0.501,0.071-0.92,0.249-1.254,0.533c-0.335,0.284-1.256,1.239-2.764,2.866c0.267,0.508,0.598,0.86,0.994,1.057
				c0.213,0.098,0.425,0.148,0.638,0.148c0.268,0,0.548-0.083,0.838-0.246c0.169-0.093,0.363-0.232,0.581-0.418l0.364,0.352
				c-0.514,0.503-0.937,0.863-1.271,1.082c-0.589,0.376-1.201,0.565-1.834,0.565c-0.585,0-1.087-0.137-1.51-0.409
				c-0.24-0.153-0.465-0.366-0.674-0.639c-0.625,0.426-1.314,0.726-2.066,0.901c-0.473,0.114-0.931,0.171-1.373,0.171
				c-0.978,0-1.711-0.269-2.202-0.807c-0.49-0.538-0.665-1.205-0.526-2.002c0.083-0.47,0.275-0.92,0.58-1.352
				c0.306-0.432,0.706-0.838,1.205-1.221c0.49-0.306,0.96-0.561,1.411-0.766c0.45-0.205,0.965-0.414,1.543-0.626
				C312.722,75.385,312.725,75.059,312.731,74.941z M312.924,81.367c0.284-0.088,0.571-0.202,0.864-0.345
				c-0.381-0.818-0.649-1.605-0.801-2.358c-0.099-0.469-0.185-1.152-0.258-2.047c-0.585,0.251-1.032,0.505-1.345,0.761
				c-0.568,0.47-0.913,1.052-1.034,1.745c-0.106,0.606-0.014,1.153,0.278,1.642s0.784,0.733,1.479,0.733
				C312.369,81.498,312.642,81.454,312.924,81.367z M317.11,71.797c-0.104-0.216-0.301-0.324-0.59-0.324
				c-0.465,0-0.84,0.254-1.125,0.762c-0.184,0.333-0.321,0.764-0.414,1.294c-0.038,0.218-0.063,0.456-0.076,0.712
				c-0.012,0.257-0.02,0.538-0.023,0.844c0.662-0.35,1.136-0.655,1.422-0.917c0.48-0.442,0.777-0.985,0.89-1.629
				C317.242,72.259,317.214,72.012,317.11,71.797z"/>
			<path fill="#282828" d="M335.015,71.113c0.58,0.164,0.93,0.246,1.05,0.246c0.175,0,0.313-0.043,0.417-0.131
				c0.102-0.087,0.208-0.207,0.316-0.36h0.508l-1.537,3.923l-0.507-0.098c0.058-0.235,0.091-0.373,0.101-0.414
				c0.01-0.041,0.022-0.103,0.037-0.185c0.154-0.884,0.062-1.542-0.278-1.974s-0.828-0.647-1.468-0.647
				c-1.299,0-2.58,0.863-3.843,2.588c-1.132,1.54-1.838,3.11-2.117,4.709c-0.203,1.163-0.076,1.958,0.382,2.387
				c0.457,0.429,1,0.643,1.628,0.643c0.819,0,1.639-0.271,2.46-0.811c0.443-0.295,0.906-0.69,1.386-1.188l0.443,0.369
				c-0.727,0.851-1.526,1.485-2.396,1.9c-0.87,0.415-1.714,0.622-2.533,0.622c-1.343,0-2.385-0.394-3.122-1.183
				c-0.738-0.789-0.992-1.844-0.762-3.166c0.354-2.02,1.331-3.77,2.933-5.25c1.604-1.485,3.326-2.228,5.172-2.228
				C333.857,70.867,334.435,70.949,335.015,71.113z"/>
			<path fill="#282828" d="M343.32,75.02c0.708,0.448,0.969,1.209,0.78,2.285c-0.208,1.19-0.863,2.345-1.966,3.464
				c-1.201,1.217-2.438,1.826-3.71,1.826c-0.649,0-1.229-0.202-1.74-0.606c-0.511-0.404-0.683-1.086-0.515-2.047
				c0.209-1.196,0.862-2.354,1.959-3.473c1.202-1.223,2.446-1.834,3.735-1.834C342.432,74.635,342.917,74.763,343.32,75.02z
				 M337.984,81.604c0.082,0.312,0.312,0.467,0.688,0.467c0.698,0,1.467-0.803,2.305-2.408c0.699-1.349,1.135-2.515,1.307-3.497
				c0.046-0.262,0.05-0.467,0.01-0.614c-0.078-0.273-0.289-0.409-0.633-0.409c-0.803,0-1.626,0.851-2.47,2.555
				c-0.647,1.294-1.045,2.37-1.195,3.227C337.946,81.214,337.942,81.44,337.984,81.604z"/>
			<path fill="#282828" d="M351.707,75.02c0.708,0.448,0.969,1.209,0.78,2.285c-0.208,1.19-0.863,2.345-1.966,3.464
				c-1.201,1.217-2.438,1.826-3.71,1.826c-0.649,0-1.229-0.202-1.74-0.606c-0.511-0.404-0.683-1.086-0.515-2.047
				c0.209-1.196,0.862-2.354,1.959-3.473c1.202-1.223,2.446-1.834,3.735-1.834C350.818,74.635,351.304,74.763,351.707,75.02z
				 M346.371,81.604c0.082,0.312,0.312,0.467,0.688,0.467c0.698,0,1.467-0.803,2.305-2.408c0.699-1.349,1.135-2.515,1.307-3.497
				c0.046-0.262,0.05-0.467,0.01-0.614c-0.078-0.273-0.289-0.409-0.633-0.409c-0.803,0-1.626,0.851-2.47,2.555
				c-0.647,1.294-1.045,2.37-1.195,3.227C346.333,81.214,346.329,81.44,346.371,81.604z"/>
			<path fill="#282828" d="M352.917,80.719c0.06-0.148,0.151-0.363,0.277-0.647l3.243-7.23c0.081-0.186,0.144-0.336,0.186-0.451
				c0.041-0.115,0.07-0.213,0.084-0.295c0.043-0.246-0.013-0.396-0.167-0.451c-0.154-0.055-0.418-0.076-0.791-0.066l0.077-0.442
				c0.845-0.082,1.417-0.143,1.717-0.184c0.299-0.041,0.921-0.146,1.864-0.315l-3.959,8.77c-0.197,0.443-0.32,0.724-0.368,0.844
				c-0.169,0.399-0.264,0.665-0.286,0.795c-0.021,0.115-0.004,0.192,0.049,0.229c0.055,0.039,0.105,0.058,0.154,0.058
				c0.164,0,0.398-0.143,0.702-0.426c0.305-0.284,0.585-0.59,0.839-0.917l0.327,0.238c-0.624,0.753-1.114,1.277-1.472,1.572
				c-0.594,0.492-1.179,0.737-1.752,0.737c-0.312,0-0.562-0.105-0.753-0.315s-0.256-0.488-0.195-0.832
				C352.718,81.249,352.794,81.025,352.917,80.719z"/>
			<path fill="#282828" d="M357.565,80.745c0.067-0.169,0.163-0.394,0.289-0.672l1.689-3.768c0.019-0.043,0.036-0.087,0.051-0.131
				c0.017-0.044,0.028-0.085,0.035-0.123c0.039-0.224-0.008-0.363-0.141-0.418c-0.132-0.055-0.385-0.09-0.758-0.106l0.078-0.442
				c0.317-0.022,0.781-0.067,1.394-0.135c0.61-0.068,1.046-0.127,1.303-0.176l0.74-0.139l-2.137,4.774
				c-0.182,0.41-0.304,0.694-0.37,0.852c-0.169,0.404-0.264,0.666-0.285,0.786c-0.021,0.12-0.007,0.198,0.042,0.233
				c0.048,0.036,0.104,0.054,0.171,0.054c0.169,0,0.405-0.145,0.708-0.435s0.577-0.593,0.823-0.909l0.327,0.238
				c-0.687,0.802-1.199,1.343-1.538,1.622c-0.556,0.458-1.104,0.688-1.646,0.688c-0.306,0-0.565-0.094-0.774-0.283
				c-0.21-0.188-0.281-0.476-0.214-0.864C357.377,81.255,357.448,81.04,357.565,80.745z M363.174,71.219
				c0.181,0.218,0.243,0.483,0.188,0.794s-0.209,0.577-0.467,0.798c-0.257,0.221-0.541,0.332-0.853,0.332
				c-0.311,0-0.558-0.111-0.74-0.332s-0.247-0.487-0.192-0.798s0.211-0.576,0.471-0.794c0.259-0.219,0.545-0.328,0.855-0.328
				C362.748,70.892,362.993,71,363.174,71.219z"/>
			<path fill="#282828" d="M361.801,82.358l2.401-5.356c0.1-0.218,0.173-0.391,0.223-0.516c0.095-0.235,0.151-0.398,0.168-0.492
				c0.035-0.201-0.006-0.327-0.123-0.376c-0.117-0.049-0.355-0.079-0.714-0.09l0.077-0.442c0.703-0.043,1.252-0.093,1.646-0.147
				c0.396-0.055,0.988-0.156,1.779-0.303l-1.536,3.104l0.039,0.024c-0.032,0.028,0.177-0.222,0.626-0.749s0.864-0.954,1.246-1.282
				c0.376-0.333,0.757-0.599,1.141-0.799c0.383-0.199,0.768-0.298,1.151-0.298c0.357,0,0.644,0.101,0.858,0.303
				c0.214,0.202,0.282,0.533,0.201,0.991c-0.074,0.426-0.484,1.365-1.23,2.818c-0.751,1.447-1.134,2.222-1.152,2.326
				c-0.018,0.098-0.001,0.173,0.051,0.225c0.05,0.052,0.106,0.078,0.166,0.078c0.147,0,0.398-0.186,0.752-0.557
				c0.188-0.197,0.396-0.44,0.628-0.729l0.326,0.238c-0.526,0.671-0.958,1.155-1.296,1.45c-0.584,0.508-1.153,0.762-1.709,0.762
				c-0.296,0-0.548-0.087-0.754-0.262c-0.204-0.174-0.274-0.451-0.208-0.827c0.042-0.24,0.16-0.59,0.354-1.048
				c0.195-0.458,0.409-0.931,0.642-1.417l1.204-2.507c0.027-0.06,0.05-0.111,0.068-0.155c0.019-0.043,0.032-0.087,0.04-0.131
				c0.021-0.125-0.006-0.213-0.081-0.262c-0.076-0.049-0.162-0.073-0.26-0.073c-0.342,0-0.768,0.266-1.278,0.798
				c-0.511,0.532-0.944,1.063-1.303,1.593c-0.388,0.574-0.729,1.155-1.024,1.745c-0.294,0.59-0.661,1.378-1.101,2.367H361.801z"/>
			<path fill="#282828" d="M371.919,81.924c-0.216-0.208-0.293-0.483-0.232-0.827c0.049-0.278,0.207-0.531,0.476-0.758
				c0.27-0.226,0.737-0.504,1.407-0.832c-0.426-0.164-0.717-0.412-0.878-0.745c-0.16-0.333-0.198-0.734-0.116-1.204
				c0.123-0.705,0.569-1.371,1.34-1.999c0.771-0.628,1.696-0.942,2.777-0.942c0.562,0,1.039,0.09,1.432,0.271
				c0.391,0.18,0.537,0.27,0.439,0.27h1.867l-0.166,0.95h-1.131c0.009,0.142,0.012,0.265,0.01,0.368
				c-0.001,0.104-0.014,0.221-0.037,0.352c-0.141,0.808-0.58,1.5-1.316,2.077s-1.682,0.864-2.834,0.864
				c-0.251,0-0.545-0.03-0.885-0.09c-0.088,0-0.19,0.068-0.311,0.205c-0.119,0.136-0.188,0.253-0.205,0.352
				c-0.031,0.18,0.074,0.341,0.317,0.483c0.113,0.071,0.255,0.134,0.426,0.188l0.849,0.254c0.741,0.224,1.258,0.442,1.548,0.655
				c0.499,0.36,0.693,0.857,0.583,1.49c-0.124,0.71-0.602,1.3-1.432,1.769c-0.83,0.47-1.799,0.705-2.907,0.705
				c-0.727,0-1.342-0.088-1.847-0.262c-0.871-0.295-1.241-0.814-1.111-1.557c0.084-0.48,0.398-0.871,0.941-1.171
				c0.301-0.164,0.816-0.347,1.545-0.548C372.213,82.145,372.029,82.039,371.919,81.924z M375.191,83.415
				c-0.134-0.153-0.33-0.287-0.589-0.402c-0.178-0.076-0.466-0.184-0.865-0.323c-0.398-0.14-0.639-0.209-0.721-0.209
				c0.015-0.082-0.225,0.036-0.717,0.353c-0.492,0.316-0.775,0.685-0.849,1.105c-0.046,0.262,0.014,0.502,0.177,0.721
				c0.269,0.372,0.787,0.557,1.558,0.557c0.605,0,1.099-0.11,1.479-0.328c0.379-0.219,0.599-0.5,0.659-0.844
				C375.37,83.777,375.325,83.567,375.191,83.415z M376.383,78.195c0.465-0.711,0.755-1.391,0.868-2.04
				c0.051-0.294,0.033-0.537-0.054-0.728c-0.087-0.19-0.267-0.286-0.54-0.286c-0.519,0-1.001,0.381-1.449,1.144
				c-0.446,0.763-0.723,1.444-0.827,2.043c-0.054,0.305-0.022,0.537,0.091,0.695c0.115,0.158,0.281,0.237,0.5,0.237
				C375.446,79.262,375.917,78.906,376.383,78.195z"/>
			<path fill="#282828" d="M394.205,71.113c0.58,0.164,0.93,0.246,1.05,0.246c0.175,0,0.313-0.043,0.417-0.131
				c0.103-0.087,0.208-0.207,0.316-0.36h0.508l-1.537,3.923l-0.507-0.098c0.058-0.235,0.091-0.373,0.101-0.414
				c0.01-0.041,0.022-0.103,0.037-0.185c0.154-0.884,0.062-1.542-0.278-1.974s-0.828-0.647-1.468-0.647
				c-1.299,0-2.581,0.863-3.843,2.588c-1.132,1.54-1.838,3.11-2.117,4.709c-0.203,1.163-0.076,1.958,0.382,2.387
				c0.457,0.429,1,0.643,1.628,0.643c0.819,0,1.639-0.271,2.46-0.811c0.444-0.295,0.906-0.69,1.386-1.188l0.443,0.369
				c-0.727,0.851-1.525,1.485-2.396,1.9s-1.714,0.622-2.533,0.622c-1.343,0-2.385-0.394-3.122-1.183
				c-0.738-0.789-0.992-1.844-0.762-3.166c0.354-2.02,1.331-3.77,2.933-5.25c1.603-1.485,3.326-2.228,5.172-2.228
				C393.048,70.867,393.625,70.949,394.205,71.113z"/>
			<path fill="#282828" d="M402.511,75.02c0.708,0.448,0.969,1.209,0.78,2.285c-0.208,1.19-0.864,2.345-1.966,3.464
				c-1.201,1.217-2.438,1.826-3.71,1.826c-0.649,0-1.229-0.202-1.74-0.606c-0.511-0.404-0.683-1.086-0.515-2.047
				c0.209-1.196,0.861-2.354,1.959-3.473c1.202-1.223,2.446-1.834,3.735-1.834C401.622,74.635,402.107,74.763,402.511,75.02z
				 M397.175,81.604c0.082,0.312,0.312,0.467,0.688,0.467c0.698,0,1.467-0.803,2.305-2.408c0.7-1.349,1.135-2.515,1.307-3.497
				c0.046-0.262,0.05-0.467,0.01-0.614c-0.078-0.273-0.289-0.409-0.633-0.409c-0.803,0-1.626,0.851-2.47,2.555
				c-0.647,1.294-1.045,2.37-1.195,3.227C397.137,81.214,397.133,81.44,397.175,81.604z"/>
			<path fill="#282828" d="M403.153,82.358l2.403-5.367c0.145-0.314,0.24-0.535,0.29-0.663s0.085-0.25,0.105-0.37
				c0.031-0.179-0.005-0.29-0.11-0.333c-0.104-0.043-0.347-0.076-0.726-0.098l0.078-0.442c0.714-0.043,1.326-0.101,1.834-0.172
				c0.328-0.044,0.871-0.137,1.629-0.278l-1.553,3.104l0.049,0.041c0.926-1.109,1.607-1.852,2.044-2.228
				c0.713-0.611,1.405-0.917,2.077-0.917c0.311,0,0.554,0.097,0.727,0.291c0.174,0.194,0.23,0.461,0.172,0.8
				c-0.045,0.257-0.147,0.561-0.307,0.911c-0.088,0.195-0.204,0.438-0.347,0.73c0.852-0.878,1.526-1.495,2.02-1.849
				c0.821-0.589,1.618-0.883,2.391-0.883c0.519,0,0.882,0.123,1.088,0.37c0.205,0.246,0.269,0.596,0.19,1.047
				c-0.045,0.255-0.156,0.597-0.335,1.025c-0.022,0.059-0.116,0.273-0.285,0.642l-1.354,2.661c-0.092,0.148-0.18,0.302-0.266,0.462
				c-0.084,0.159-0.133,0.271-0.145,0.337c-0.011,0.062,0.014,0.109,0.069,0.145c0.057,0.035,0.112,0.052,0.167,0.052
				c0.159,0,0.412-0.183,0.761-0.549c0.187-0.197,0.396-0.442,0.629-0.737l0.326,0.238c-0.532,0.671-0.969,1.155-1.31,1.45
				c-0.592,0.508-1.166,0.762-1.723,0.762c-0.284,0-0.536-0.076-0.755-0.229c-0.22-0.152-0.298-0.404-0.236-0.754
				c0.05-0.29,0.194-0.696,0.434-1.22c0.148-0.32,0.336-0.688,0.562-1.105l1.138-2.563c0.021-0.051,0.039-0.104,0.057-0.159
				c0.018-0.055,0.031-0.107,0.04-0.159c0.024-0.139,0.011-0.256-0.041-0.351c-0.065-0.095-0.176-0.142-0.333-0.142
				c-0.437,0-0.98,0.292-1.632,0.876c-0.652,0.584-1.217,1.188-1.693,1.81c-0.175,0.224-0.357,0.497-0.548,0.819
				c-0.188,0.322-0.699,1.321-1.529,2.998h-2.016l2.447-5.496c0.066-0.128,0.122-0.245,0.168-0.35
				c0.046-0.104,0.077-0.206,0.094-0.303c0.027-0.154,0.012-0.251-0.045-0.292c-0.058-0.041-0.124-0.062-0.2-0.062
				c-0.244,0-0.611,0.25-1.101,0.75c-0.488,0.5-0.982,1.149-1.483,1.947c-0.268,0.426-0.583,1.022-0.945,1.787
				c-0.233,0.463-0.553,1.137-0.957,2.02H403.153z"/>
			<path fill="#282828" d="M413.311,85.421c-0.252-0.262-0.347-0.579-0.281-0.95c0.047-0.267,0.173-0.483,0.38-0.647
				c0.206-0.164,0.42-0.246,0.645-0.246c0.219,0,0.4,0.075,0.546,0.225s0.196,0.354,0.151,0.61
				c-0.023,0.137-0.093,0.272-0.205,0.405c-0.113,0.134-0.175,0.225-0.184,0.274c-0.01,0.06,0.01,0.107,0.062,0.14
				s0.119,0.049,0.2,0.049c0.421,0,0.799-0.335,1.134-1.003c0.334-0.663,1.129-2.613,2.385-5.849l1.199-2.911h-1.234l0.277-0.688
				h1.238c0.171-0.415,0.479-0.978,0.923-1.691c0.442-0.712,0.951-1.287,1.524-1.724c0.69-0.518,1.353-0.778,1.985-0.778
				c0.508,0,0.904,0.115,1.188,0.344c0.285,0.229,0.388,0.571,0.309,1.024c-0.047,0.268-0.168,0.482-0.362,0.643
				s-0.407,0.242-0.637,0.242c-0.224,0-0.404-0.079-0.539-0.237c-0.137-0.157-0.187-0.342-0.149-0.554
				c0.025-0.146,0.097-0.298,0.214-0.453s0.179-0.246,0.184-0.272c0.006-0.038-0.005-0.087-0.032-0.147
				c-0.034-0.054-0.106-0.081-0.216-0.081c-0.305,0-0.619,0.212-0.941,0.637c-0.322,0.425-0.661,1.046-1.017,1.863l-0.518,1.185
				h1.552l-0.276,0.688H421.3c-1.487,3.92-2.596,6.492-3.328,7.715c-1.033,1.72-2.204,2.58-3.515,2.58
				C413.944,85.814,413.562,85.683,413.311,85.421z"/>
			<path fill="#282828" d="M429.53,75.02c0.708,0.448,0.969,1.209,0.78,2.285c-0.208,1.19-0.864,2.345-1.966,3.464
				c-1.201,1.217-2.438,1.826-3.71,1.826c-0.649,0-1.229-0.202-1.74-0.606c-0.511-0.404-0.683-1.086-0.515-2.047
				c0.209-1.196,0.861-2.354,1.959-3.473c1.202-1.223,2.446-1.834,3.735-1.834C428.642,74.635,429.127,74.763,429.53,75.02z
				 M424.194,81.604c0.082,0.312,0.312,0.467,0.688,0.467c0.698,0,1.467-0.803,2.305-2.408c0.7-1.349,1.135-2.515,1.307-3.497
				c0.046-0.262,0.05-0.467,0.01-0.614c-0.078-0.273-0.289-0.409-0.633-0.409c-0.803,0-1.626,0.851-2.47,2.555
				c-0.647,1.294-1.045,2.37-1.195,3.227C424.156,81.214,424.152,81.44,424.194,81.604z"/>
			<path fill="#282828" d="M430.05,82.358c0.74-1.6,1.357-2.976,1.852-4.128c0.555-1.24,0.853-1.977,0.895-2.211
				c0.035-0.208-0.01-0.341-0.135-0.401c-0.126-0.06-0.356-0.09-0.689-0.09l0.078-0.442c0.722-0.043,1.336-0.101,1.839-0.172
				c0.326-0.044,0.884-0.137,1.674-0.278l-1.453,2.973l0.071,0.017c0.643-0.928,1.142-1.586,1.498-1.974
				c0.627-0.677,1.174-1.015,1.643-1.015c0.328,0,0.551,0.109,0.668,0.327c0.116,0.219,0.152,0.461,0.105,0.729
				c-0.057,0.322-0.192,0.612-0.409,0.868c-0.217,0.257-0.479,0.385-0.784,0.385c-0.137,0-0.259-0.027-0.367-0.083
				c-0.107-0.054-0.192-0.136-0.256-0.245l-0.12-0.197c-0.023-0.033-0.047-0.06-0.073-0.082c-0.025-0.022-0.063-0.033-0.112-0.033
				c-0.213,0-0.542,0.29-0.986,0.868c-0.446,0.579-0.838,1.168-1.178,1.769c-0.236,0.415-0.542,1.005-0.915,1.769
				c-0.374,0.765-0.648,1.313-0.821,1.646H430.05z"/>
			<path fill="#282828" d="M437.001,80.941c0.068-0.186,0.191-0.475,0.369-0.868l2.042-4.554h-0.854l0.1-0.573
				c0.595-0.224,1.106-0.47,1.533-0.737c0.753-0.47,1.42-1.073,2-1.81h0.606l-1.091,2.432h1.204l-0.12,0.688h-1.4l-1.762,3.89
				c-0.158,0.344-0.283,0.631-0.378,0.86c-0.162,0.393-0.255,0.663-0.281,0.811c-0.018,0.104,0.002,0.172,0.059,0.205
				s0.107,0.05,0.151,0.05c0.158,0,0.386-0.137,0.682-0.41c0.296-0.272,0.579-0.584,0.849-0.934l0.326,0.238
				c-0.63,0.753-1.121,1.277-1.473,1.572c-0.595,0.492-1.177,0.737-1.746,0.737c-0.328,0-0.583-0.108-0.764-0.324
				c-0.182-0.215-0.243-0.49-0.185-0.823C436.889,81.276,436.933,81.126,437.001,80.941z"/>
			<path fill="#282828" d="M444.892,81.924c0.407-0.049,0.72-0.146,0.937-0.293c0.216-0.146,0.427-0.447,0.633-0.903l3.376-7.526
				c0.073-0.169,0.142-0.338,0.207-0.508s0.106-0.306,0.125-0.409c0.051-0.295-0.024-0.489-0.226-0.582
				c-0.132-0.061-0.422-0.104-0.87-0.131l0.076-0.434h4.812c0.813,0,1.471,0.109,1.973,0.328c0.953,0.415,1.334,1.176,1.14,2.285
				c-0.174,0.999-0.729,1.797-1.666,2.396c-0.936,0.598-2.066,0.897-3.392,0.897c-0.202,0-0.362-0.003-0.48-0.008
				c-0.119-0.005-0.441-0.027-0.963-0.065l-1.498,3.333l-0.241,0.579c-0.026,0.054-0.046,0.11-0.062,0.167
				c-0.016,0.058-0.028,0.113-0.038,0.167c-0.049,0.283-0.004,0.46,0.137,0.534s0.463,0.132,0.968,0.175l-0.075,0.434h-4.947
				L444.892,81.924z M450.82,76.42c0.117,0.017,0.219,0.027,0.306,0.033c0.086,0.005,0.175,0.008,0.268,0.008
				c0.567,0,1.016-0.068,1.346-0.205c0.329-0.136,0.633-0.36,0.911-0.671c0.259-0.295,0.487-0.676,0.687-1.142
				c0.198-0.467,0.325-0.854,0.379-1.16c0.082-0.469,0.038-0.853-0.133-1.15c-0.172-0.298-0.52-0.446-1.047-0.446
				c-0.261,0-0.446,0.053-0.558,0.16c-0.11,0.106-0.23,0.299-0.361,0.577L450.82,76.42z"/>
			<path fill="#282828" d="M455.677,82.358c0.74-1.6,1.357-2.976,1.852-4.128c0.555-1.24,0.853-1.977,0.895-2.211
				c0.035-0.208-0.01-0.341-0.135-0.401c-0.126-0.06-0.356-0.09-0.689-0.09l0.078-0.442c0.722-0.043,1.336-0.101,1.839-0.172
				c0.326-0.044,0.884-0.137,1.674-0.278l-1.453,2.973l0.071,0.017c0.643-0.928,1.142-1.586,1.498-1.974
				c0.627-0.677,1.174-1.015,1.643-1.015c0.328,0,0.551,0.109,0.668,0.327c0.116,0.219,0.152,0.461,0.105,0.729
				c-0.057,0.322-0.192,0.612-0.409,0.868c-0.217,0.257-0.479,0.385-0.784,0.385c-0.137,0-0.259-0.027-0.367-0.083
				c-0.107-0.054-0.192-0.136-0.256-0.245l-0.12-0.197c-0.023-0.033-0.047-0.06-0.073-0.082c-0.025-0.022-0.063-0.033-0.112-0.033
				c-0.213,0-0.542,0.29-0.986,0.868c-0.446,0.579-0.838,1.168-1.178,1.769c-0.236,0.415-0.542,1.005-0.915,1.769
				c-0.374,0.765-0.648,1.313-0.821,1.646H455.677z"/>
			<path fill="#282828" d="M470.071,75.02c0.708,0.448,0.969,1.209,0.78,2.285c-0.208,1.19-0.864,2.345-1.966,3.464
				c-1.201,1.217-2.438,1.826-3.71,1.826c-0.649,0-1.229-0.202-1.74-0.606c-0.511-0.404-0.683-1.086-0.515-2.047
				c0.209-1.196,0.861-2.354,1.959-3.473c1.202-1.223,2.446-1.834,3.735-1.834C469.183,74.635,469.668,74.763,470.071,75.02z
				 M464.735,81.604c0.082,0.312,0.312,0.467,0.688,0.467c0.698,0,1.467-0.803,2.305-2.408c0.7-1.349,1.135-2.515,1.307-3.497
				c0.046-0.262,0.05-0.467,0.01-0.614c-0.078-0.273-0.289-0.409-0.633-0.409c-0.803,0-1.626,0.851-2.47,2.555
				c-0.647,1.294-1.045,2.37-1.195,3.227C464.697,81.214,464.693,81.44,464.735,81.604z"/>
			<path fill="#282828" d="M477.249,74.806c0.118,0.077,0.239,0.194,0.364,0.353l1.231-2.766c0.026-0.055,0.047-0.109,0.062-0.165
				c0.015-0.055,0.026-0.106,0.035-0.156c0.034-0.197-0.002-0.332-0.109-0.402c-0.108-0.071-0.271-0.107-0.489-0.107h-0.345
				l0.077-0.442l0.73-0.065c0.569-0.05,1.01-0.099,1.323-0.148c0.313-0.049,0.824-0.139,1.532-0.27l-3.045,6.79
				c-0.239,0.529-0.563,1.257-0.97,2.183c-0.407,0.925-0.618,1.435-0.635,1.528c-0.014,0.082-0.005,0.142,0.029,0.18
				c0.034,0.039,0.082,0.058,0.143,0.058c0.125,0,0.321-0.135,0.59-0.405s0.507-0.537,0.717-0.798l0.321,0.27
				c-0.557,0.656-1,1.122-1.328,1.401c-0.572,0.492-1.089,0.737-1.549,0.737c-0.24,0-0.435-0.06-0.583-0.18
				c-0.236-0.18-0.316-0.486-0.241-0.917c0.012-0.071,0.049-0.195,0.11-0.373c0.06-0.177,0.142-0.4,0.243-0.668
				c-0.518,0.656-0.949,1.125-1.293,1.409c-0.6,0.497-1.211,0.745-1.832,0.745c-0.491,0-0.879-0.19-1.164-0.569
				c-0.285-0.379-0.361-0.948-0.229-1.708c0.209-1.196,0.923-2.438,2.142-3.727c1.245-1.315,2.378-1.974,3.398-1.974
				C476.793,74.618,477.047,74.681,477.249,74.806z M473.083,81.101c0.096,0.183,0.254,0.274,0.472,0.274
				c0.659,0,1.436-0.778,2.329-2.334c0.75-1.294,1.178-2.245,1.284-2.851c0.037-0.213,0.04-0.385,0.008-0.516
				c-0.062-0.24-0.231-0.36-0.509-0.36c-0.623,0-1.376,0.694-2.262,2.081c-0.795,1.239-1.258,2.236-1.39,2.989
				C472.964,80.679,472.987,80.918,473.083,81.101z"/>
			<path fill="#282828" d="M480.036,80.613c0.092-0.246,0.187-0.472,0.283-0.68l1.429-3.186c0.068-0.142,0.121-0.265,0.159-0.369
				c0.037-0.104,0.065-0.208,0.084-0.311c0.037-0.213-0.009-0.354-0.137-0.422s-0.362-0.108-0.705-0.119l0.078-0.442
				c1.166-0.104,2.045-0.205,2.637-0.303c0.591-0.098,0.912-0.147,0.962-0.147l-1.21,2.563l-1.258,2.58
				c-0.06,0.12-0.131,0.278-0.214,0.475c-0.129,0.295-0.205,0.513-0.23,0.655c-0.023,0.137-0.007,0.237,0.05,0.303
				s0.147,0.098,0.271,0.098c0.265,0,0.659-0.261,1.183-0.782c0.524-0.521,1.051-1.216,1.58-2.084
				c0.342-0.562,0.66-1.135,0.952-1.72c0.195-0.388,0.495-1.019,0.9-1.893h1.982l-1.046,2.326c-0.041,0.088-0.227,0.501-0.556,1.241
				c-0.33,0.74-0.528,1.184-0.596,1.331c-0.132,0.29-0.251,0.559-0.354,0.807c-0.104,0.249-0.163,0.419-0.18,0.512
				c-0.018,0.104-0.007,0.185,0.035,0.242s0.102,0.086,0.178,0.086c0.175,0,0.443-0.191,0.805-0.573
				c0.208-0.213,0.399-0.437,0.577-0.672l0.314,0.213c-0.43,0.606-0.926,1.124-1.488,1.552c-0.564,0.429-1.104,0.643-1.624,0.643
				c-0.457,0-0.754-0.126-0.889-0.377c-0.092-0.169-0.112-0.393-0.064-0.671c0.047-0.268,0.109-0.496,0.186-0.684
				c0.076-0.188,0.238-0.531,0.483-1.028l-0.037-0.017c-0.847,0.983-1.466,1.639-1.854,1.966c-0.643,0.546-1.251,0.819-1.824,0.819
				c-0.278,0-0.513-0.071-0.702-0.213c-0.317-0.224-0.43-0.604-0.336-1.139C479.886,81.053,479.943,80.859,480.036,80.613z"/>
			<path fill="#282828" d="M491.118,76.346c1.206-1.152,2.398-1.728,3.578-1.728c0.628,0,1.074,0.154,1.34,0.463
				c0.266,0.308,0.365,0.656,0.297,1.044c-0.062,0.36-0.219,0.646-0.47,0.856c-0.249,0.21-0.519,0.315-0.808,0.315
				c-0.219,0-0.419-0.075-0.6-0.225c-0.182-0.15-0.246-0.373-0.195-0.667c0.021-0.121,0.051-0.213,0.086-0.279
				c0.036-0.065,0.106-0.167,0.213-0.303l0.096-0.124c0.048-0.06,0.082-0.106,0.102-0.139c0.019-0.033,0.032-0.068,0.039-0.106
				c0.016-0.093-0.015-0.166-0.094-0.217c-0.077-0.052-0.178-0.078-0.297-0.078c-0.602,0-1.28,0.623-2.038,1.867
				c-0.674,1.109-1.082,2.069-1.225,2.883c-0.064,0.371-0.051,0.693,0.044,0.966c0.14,0.42,0.452,0.63,0.938,0.63
				c0.36,0,0.729-0.132,1.105-0.397c0.377-0.265,0.771-0.638,1.184-1.118l0.412,0.312c-0.673,0.753-1.208,1.275-1.608,1.564
				c-0.681,0.486-1.417,0.729-2.208,0.729c-0.602,0-1.125-0.213-1.571-0.639c-0.447-0.426-0.594-1.081-0.438-1.966
				C489.225,78.697,489.931,77.482,491.118,76.346z"/>
			<path fill="#282828" d="M498.532,76.385c1.211-1.178,2.416-1.767,3.617-1.767c0.519,0,0.927,0.128,1.223,0.384
				c0.297,0.256,0.404,0.619,0.322,1.087c-0.124,0.709-0.64,1.379-1.547,2.012c-0.908,0.632-2.014,1.036-3.316,1.21
				c-0.062,0.169-0.113,0.328-0.156,0.475c-0.042,0.147-0.071,0.268-0.087,0.36c-0.061,0.345-0.059,0.615,0.006,0.811
				c0.109,0.366,0.413,0.549,0.91,0.549c0.404,0,0.843-0.207,1.313-0.622c0.251-0.219,0.533-0.521,0.846-0.909l0.442,0.287
				c-0.544,0.704-1.029,1.22-1.458,1.548c-0.682,0.524-1.419,0.786-2.21,0.786c-0.59,0-1.107-0.214-1.555-0.643
				c-0.446-0.428-0.593-1.081-0.439-1.959C496.665,78.728,497.361,77.525,498.532,76.385z M502.19,75.367
				c-0.047-0.134-0.164-0.2-0.35-0.2c-0.393,0-0.835,0.316-1.325,0.948c-0.489,0.632-0.98,1.517-1.475,2.656
				c1.004-0.218,1.763-0.637,2.275-1.258c0.512-0.621,0.811-1.174,0.896-1.659C502.245,75.663,502.238,75.5,502.19,75.367z"/>
			<path fill="#282828" d="M503.197,82.358c0.74-1.6,1.358-2.976,1.852-4.128c0.556-1.24,0.853-1.977,0.894-2.211
				c0.037-0.208-0.008-0.341-0.134-0.401s-0.356-0.09-0.689-0.09l0.077-0.442c0.723-0.043,1.337-0.101,1.84-0.172
				c0.326-0.044,0.884-0.137,1.674-0.278l-1.453,2.973l0.071,0.017c0.643-0.928,1.142-1.586,1.498-1.974
				c0.626-0.677,1.174-1.015,1.643-1.015c0.328,0,0.55,0.109,0.667,0.327c0.117,0.219,0.153,0.461,0.106,0.729
				c-0.057,0.322-0.192,0.612-0.409,0.868c-0.217,0.257-0.479,0.385-0.784,0.385c-0.137,0-0.259-0.027-0.366-0.083
				c-0.108-0.054-0.193-0.136-0.257-0.245l-0.12-0.197c-0.023-0.033-0.047-0.06-0.073-0.082c-0.025-0.022-0.063-0.033-0.112-0.033
				c-0.213,0-0.542,0.29-0.986,0.868c-0.446,0.579-0.838,1.168-1.178,1.769c-0.236,0.415-0.542,1.005-0.915,1.769
				c-0.374,0.765-0.647,1.313-0.821,1.646H503.197z"/>
		</g>
	</g>
</g>
<g id="Menu_Nav" display="none">
</g>
<g id="Base_x5F_Grid">
</g>
<g id="Sub_Menu_x5F_Nav_1_" display="none">
</g>
<g id="Icons">
</g>
</svg>
